<?xml version="1.0" standalone="no"?>
<!DOCTYPE svg PUBLIC "-//W3C//DTD SVG 20010904//EN"
 "http://www.w3.org/TR/2001/REC-SVG-20010904/DTD/svg10.dtd">
<svg version="1.0" xmlns="http://www.w3.org/2000/svg"
 width="700.000000pt" height="700.000000pt" viewBox="0 0 700.000000 700.000000"
 preserveAspectRatio="xMidYMid meet">
<metadata>
Created by potrace 1.14, written by Peter Selinger 2001-2017
</metadata>
<g transform="translate(0.000000,700.000000) scale(0.100000,-0.100000)"
fill="#000000" stroke="none">
<path d="M675 5088 c-4 -29 -8 -60 -10 -68 -2 -8 -12 -69 -24 -135 -11 -66
-23 -131 -26 -145 -3 -14 -12 -63 -19 -110 -16 -92 -42 -240 -51 -280 -2 -13
-7 -42 -10 -65 -3 -22 -8 -47 -10 -55 -2 -8 -7 -33 -10 -55 -3 -23 -7 -52 -10
-65 -3 -14 -10 -52 -16 -85 -5 -33 -12 -71 -15 -85 -2 -14 -8 -52 -14 -85 -5
-33 -12 -69 -14 -80 -2 -11 -7 -40 -11 -65 -4 -25 -9 -54 -11 -65 -10 -51 -76
-423 -79 -445 -3 -25 -20 -121 -30 -170 -3 -14 -10 -52 -15 -85 -5 -33 -12
-71 -15 -85 -3 -14 -12 -68 -21 -120 -9 -52 -17 -102 -19 -110 -1 -8 -6 -35
-10 -60 -4 -25 -9 -54 -11 -65 -4 -17 -15 -79 -60 -335 -12 -70 -15 -89 -24
-135 -5 -27 -12 -66 -15 -85 -3 -19 -8 -47 -11 -63 l-6 -27 355 0 355 0 7 46
c3 25 8 56 11 67 2 12 6 36 9 52 3 17 8 43 11 58 3 16 7 38 9 50 1 12 5 38 9
57 3 19 8 49 11 65 6 30 43 243 49 280 6 30 18 97 23 120 2 11 6 36 9 55 3 19
11 69 19 110 8 41 26 145 41 230 14 85 28 164 30 175 5 27 22 122 29 165 3 19
26 150 51 290 25 140 47 264 49 275 3 20 62 354 69 390 5 27 14 82 21 125 3
19 16 96 30 170 30 167 64 370 72 424 3 23 7 43 9 45 5 6 5 94 6 -1671 l0
-1578 354 0 354 0 0 1640 0 1640 -709 0 -709 0 -7 -52z"/>
<path d="M2808 5133 c-2 -5 -3 -741 -3 -1638 l1 -1630 706 -3 707 -2 9 52 c15
79 21 110 47 263 14 77 26 149 29 160 2 11 7 40 11 65 4 25 9 52 10 61 2 9 6
32 9 50 3 19 8 44 10 55 2 12 7 39 10 60 4 22 11 64 16 94 13 71 19 104 25
138 2 15 7 38 10 52 2 14 6 36 9 50 10 63 17 99 62 355 19 110 37 214 39 230
3 17 7 41 10 55 2 14 7 41 10 60 3 19 8 42 10 50 2 8 7 35 10 60 4 25 15 90
25 145 15 80 49 269 75 420 4 24 22 128 30 170 3 17 8 46 11 65 3 19 7 42 9
50 3 8 7 33 10 55 9 57 34 202 45 255 14 66 22 123 22 143 -1 9 3 17 7 17 4 0
7 -726 7 -1612 l0 -1613 706 -3 707 -2 10 52 c6 29 22 121 36 203 14 83 39
224 55 315 16 91 48 269 70 395 22 127 51 293 65 370 13 77 26 151 28 165 3
14 8 45 12 70 4 25 9 54 12 65 2 11 6 32 8 47 2 15 9 53 15 85 5 32 13 72 15
88 3 17 10 55 16 85 5 30 21 119 34 196 13 78 34 193 45 255 11 63 23 129 26
148 3 18 7 43 10 55 3 18 38 214 50 286 14 82 50 288 63 353 l8 47 -355 -2
-355 -3 -3 -25 c-3 -22 -18 -111 -30 -175 -2 -11 -11 -60 -20 -110 -8 -49 -17
-101 -20 -115 -6 -32 -73 -415 -80 -455 -2 -16 -11 -66 -19 -110 -8 -44 -17
-93 -20 -110 -2 -16 -7 -39 -9 -50 -6 -32 -20 -109 -21 -120 -1 -15 -17 -107
-22 -130 -6 -32 -113 -637 -128 -730 -3 -16 -8 -41 -11 -55 -3 -14 -8 -43 -10
-65 -3 -22 -9 -56 -14 -75 -5 -19 -11 -53 -15 -75 -8 -53 -13 -88 -26 -160 -6
-33 -13 -73 -15 -90 -3 -16 -9 -50 -14 -75 -5 -25 -14 -72 -19 -105 -15 -88
-71 -408 -75 -420 -1 -5 -3 724 -3 1620 l0 1630 -706 3 -707 2 -4 -22 c-11
-49 -26 -135 -31 -168 -2 -19 -13 -84 -24 -145 -11 -60 -23 -123 -25 -140 -3
-16 -8 -41 -11 -55 -2 -14 -15 -90 -29 -170 -45 -261 -96 -554 -101 -580 -3
-14 -14 -77 -25 -140 -11 -63 -22 -126 -25 -140 -3 -14 -21 -117 -41 -230 -41
-242 -72 -415 -78 -450 -3 -14 -12 -65 -20 -115 -9 -49 -18 -100 -20 -111 -2
-12 -7 -39 -11 -60 -3 -22 -8 -54 -11 -73 -3 -18 -8 -43 -10 -55 -7 -32 -85
-475 -91 -519 -3 -21 -9 -39 -13 -42 -4 -2 -7 719 -7 1603 l0 1607 -351 3
c-193 1 -352 -1 -354 -5z m709 -3245 c-3 -8 -6 -5 -6 6 -1 11 2 17 5 13 3 -3
4 -12 1 -19z"/>
</g>
</svg>
