<?xml version="1.0" encoding="UTF-8"?>
<svg xmlns="http://www.w3.org/2000/svg" viewBox="0 0 182.07 51.67">
  <path id="uuid-a8bd5ad1-e2f4-41aa-a45e-a712c1f2ece5" d="m98.66,33.4c0,5.6-7,5.28-7,5.28h-7v-10.16h7.05c7.18,0,6.96,4.87,6.96,4.87m-14.05-20.37h5.35c5.54.27,5.35,4.42,5.35,4.42,0,5.1-6.13,5.19-6.13,5.19h-4.58v-9.61Zm12.77,11.62s4.8-2.05,4.76-7.43c0,0,.73-8.84-11.07-9.93h-13.09v37.13h15.01s12.54.05,12.54-10.48c0,0,.27-7.15-8.15-9.29M63.51,0h55.05v51.67h-55.05V0Zm-28.32,33.4c0,5.6-7,5.28-7,5.28h-7v-10.16h6.96c7.23,0,7,4.87,7.05,4.87m-14.05-20.37h5.4c5.54.27,5.35,4.42,5.35,4.42,0,5.1-6.13,5.19-6.13,5.19h-4.58l-.05-9.61Zm12.72,11.66s4.8-2.05,4.76-7.43c0,0,.73-8.84-11.07-9.93h-13.09v37.13h15.01s12.54.05,12.54-10.48c0-.05.32-7.2-8.15-9.29M0,0h55.05v51.67H.05L0,0Zm170.82,9.98v6.88s-6.68-4.1-14.14-4.19c0,0-13.86-.27-14.51,13.21,0,0-.5,12.44,14.32,13.12,0,0,6.22.73,14.64-4.6v7.11s-11.3,6.65-24.44,1.55c0,0-11.03-4.01-11.44-17.18,0,0-.46-13.53,14.23-18,0,0,3.94-1.5,10.98-.82,0-.09,4.21.36,10.34,2.92m-43.84,41.69h55.09V0h-55.05l-.05,51.67Z" stroke-width="0"></path>
</svg>
