<svg xmlns="http://www.w3.org/2000/svg" viewBox="0 0 99 98.23">
  <path id="uuid-6021c3a2-7ab9-4c50-9342-877dee453e7b" d="m49.5,0C22.19,0,0,22,0,49.09s22.19,49.14,49.5,49.14,49.5-22,49.5-49.09S76.81,0,49.5,0Zm0,4.11c25.09,0,45.4,20.14,45.4,45.02s-20.3,45.02-45.4,45.02S4.1,74.02,4.1,49.14c.04-24.89,20.3-45.02,45.4-45.02Zm-3.16,1.48l-4.32.51-.47,12.93,3.33-.51.34-8.65,3.03,8.65h2.44l3.03-8.65.34,8.65,3.33.51-.47-12.93-4.32-.51-3.12,9.07-3.16-9.07Zm31.59,9.88l-7.78,10.22,2.39,2.16,8.63-3.9-5.73,7.46,1.67,2.8,11.71-5.38-1.67-2.8-6.75,3.05,4.83-6.27-2.14-2.63-7.22,3.31,4.53-5.89-2.48-2.12Zm-57.41,1.57c-.9.04-1.71.47-2.27,1.14-.21.25-.38.51-.6.76-1.07,1.31-2.09,2.59-3.16,3.9-.9,1.1-1.8,2.2-2.69,3.31-.04.08-.13.17-.21.25l.13.04c.34.3.77.55,1.11.85,1.33,1.06,2.61,2.08,3.93,3.14s2.61,2.08,3.93,3.14l1.03.85s.04.08.04.04c.09-.08.13-.17.21-.25.9-1.1,1.8-2.2,2.69-3.31,1.07-1.36,2.14-2.71,3.21-4.03.56-.68,1.15-1.31,1.41-2.16.13-.47.17-.93.13-1.4-.17-1.23-.94-2.25-2.05-2.76-1.15-.51-2.48-.34-3.46.38-.09.04-.17.13-.26.21.17-.55.26-1.14.13-1.74-.13-.55-.47-1.06-.9-1.48-.6-.64-1.5-.98-2.35-.89h0Zm-.26,3.22c.47-.04.9.13,1.24.47.34.34.43.89.34,1.36-.13.42-.43.68-.73,1.02-.51.68-1.07,1.31-1.62,1.99-.56.68-1.07,1.31-1.62,1.99-.56-.42-1.07-.85-1.62-1.27l-.64-.51.26-.25c1.03-1.27,2.01-2.5,3.03-3.77.26-.34.51-.72.9-.89.13-.08.3-.08.47-.13h0Zm29.24.21c-15.9,0-28.9,12.85-28.9,28.66s12.95,28.66,28.9,28.66,28.9-12.85,28.9-28.66-12.95-28.66-28.9-28.66Zm-24.75,2.67c.6-.04,1.11.3,1.37.85.21.51.17,1.1-.21,1.53l-1.03,1.27c-.94,1.19-1.88,2.33-2.82,3.52-.04-.04-.13-.04-.21-.08-.26-.21-.51-.42-.77-.64-.43-.34-.85-.72-1.28-1.1l2.52-3.14,1.28-1.61c.3-.3.64-.55,1.15-.59h0Zm24.75,1.44c13.68,0,24.75,10.98,24.75,24.55h-24.75v24.55c-13.68,0-24.75-10.98-24.75-24.55h24.75v-24.55Z" stroke-width="0"></path>
</svg>