<?xml version="1.0" encoding="UTF-8"?>
<svg xmlns="http://www.w3.org/2000/svg" xmlns:xlink="http://www.w3.org/1999/xlink" width="98.9994px" height="30px" viewBox="0 0 98.9994 30" version="1.1">
  <title>boschung</title>
  <g id="Page-1" stroke="none" stroke-width="1" fill="none" fill-rule="evenodd">
    <g id="boschung" fill="#000000" fill-rule="nonzero">
      <path d="M95.7943,19.5034 L90.0253,19.5034 L90.0253,9.07784 L95.7943,9.07784 L95.7943,19.5034 Z M98.9994,5.81543 L86.749,5.81543 L86.749,22.6949 L95.7943,22.6949 L95.7943,26.7374 L13.0332,26.7374 L13.0332,29.9289 L98.9994,29.9289 L98.9994,5.81543 Z" id="Shape"></path>
      <path d="M22.0082,19.5034 L16.2391,19.5034 L16.2391,9.07784 L22.0082,9.07784 L22.0082,19.5034 Z M25.2133,5.81543 L12.9629,5.81543 L12.9629,22.6949 L25.2133,22.6949 L25.2133,5.81543 Z" id="Shape"></path>
      <path d="M8.54676,26.7376 L3.20504,26.7376 L3.20504,9.00709 L8.54676,9.00709 L8.54676,26.7376 Z M3.20504,0 L0,0 L0,30 L11.7518,30 L11.7518,5.8156 L3.20504,5.8156 L3.20504,0 Z" id="Shape"></path>
      <polygon id="Path" points="33.3335 19.5034 26.4961 19.5034 26.4961 22.7658 36.5385 22.7658 36.5385 12.1275 29.7011 12.1275 29.7011 9.07784 36.5385 9.07784 36.5385 5.81543 26.4961 5.81543 26.4961 15.319 33.3335 15.319"></polygon>
      <polygon id="Path" points="51.4941 22.766 51.4941 9.07801 56.4797 9.07801 56.4797 22.766 59.756 22.766 59.756 5.8156 51.4941 5.8156 51.4941 0 48.2178 0 48.2178 19.5035 41.0243 19.5035 41.0243 9.07801 45.725 9.07801 45.725 5.8156 37.748 5.8156 37.748 22.766"></polygon>
      <polygon id="Path" points="72.6474 5.81543 69.3711 5.81543 69.3711 19.5034 64.2431 19.5034 64.2431 5.81543 60.9668 5.81543 60.9668 22.7658 72.6474 22.7658"></polygon>
      <polygon id="Path" points="77.0644 9.07784 82.2637 9.07784 82.2637 22.7658 85.5399 22.7658 85.5399 5.81543 73.8594 5.81543 73.8594 22.7658 77.0644 22.7658"></polygon>
    </g>
  </g>
</svg>
