<?xml version="1.0" encoding="UTF-8"?>
<svg fill="#fff"  xmlns="http://www.w3.org/2000/svg" viewBox="0 0 180 44">
  <path id="uuid-92a38a53-a3b2-4c78-bf2a-d96e3e6461cc" d="m104.48,33.72c.98-3.96-.23-7.68-3.29-12.26-2.94-4.38-4.19-6.6-4.03-10.05.2-4.58,3.17-8.26,7.67-11.02h-14.25c-5.21,3.8-7.2,9.2-7.16,12.96.04,3.45,1.14,5.98,3.44,9.23,1.88,2.68,3.76,5.04,3.84,8.19.08,4-2.94,7.37-6.89,9.97l12.06,3.26c3.72-2.21,7.59-6.25,8.61-10.28h0Zm8.18-23.2h7.63v26.66h11.16V10.52h7.63V.93h-26.42v9.58Zm-79.82,22.08l-7.63-7.57c-3.29,3.26-8.65,3.22-11.94-.04-3.29-3.26-3.25-8.57.04-11.83,3.29-3.26,8.65-3.22,11.94.04l.04.04,7.63-7.57c-7.48-7.49-19.65-7.57-27.21-.16s-7.63,19.48-.16,26.97,19.65,7.57,27.21.16l.08-.04Zm125.62-9.97l2.74-11.37h.12l2.7,11.37h-5.56ZM168.14.93h-13.43l-11.59,36.24h11.9l1.53-5.9h9.63l1.53,5.9h12.29L168.14.93ZM56.37,27.47c-4.66,0-8.42-3.76-8.42-8.38s3.8-8.34,8.46-8.34,8.42,3.76,8.42,8.34-3.76,8.38-8.42,8.38h-.04ZM56.37.04c-10.61,0-19.22,8.54-19.22,19.09s8.61,19.05,19.26,19.05,19.22-8.54,19.22-19.09S67.02.04,56.37.04h0Z" stroke-width="0"></path>
</svg>

