<?xml version="1.0" encoding="utf-8"?>
<!-- Generator: Adobe Illustrator 27.8.0, SVG Export Plug-In . SVG Version: 6.00 Build 0)  -->
<svg version="1.1" id="Layer_1" xmlns="http://www.w3.org/2000/svg" xmlns:xlink="http://www.w3.org/1999/xlink" x="0px" y="0px"
	 viewBox="0 0 457.3 101.6" style="enable-background:new 0 0 457.3 101.6;" xml:space="preserve">
<path d="M0,101.5h30.2v-9.2H0V101.5z M0,89.6h30.2v-9.2H0V89.6z M0,77.7h30.2v-9.1H0V77.7z M0,65.8h30.2v-9.1H0V65.8z M0,53.9h30.2
	v-9.1H0V53.9z M33.9,101.5h30.2v-9.2H33.9V101.5z M33.9,89.6h30.2v-9.2H33.9V89.6z M33.9,77.7h30.2v-9.1H33.9V77.7z M67.7,101.5
	h30.2v-9.2H67.7V101.5z M67.7,89.6h30.2v-9.2H67.7V89.6z M67.7,77.7h30.2v-9.1H67.7V77.7z M67.7,65.8h30.2v-9.1H67.7V65.8z
	 M67.7,53.9h30.2v-9.1H67.7V53.9z M67.7,42.1h30.2V33H67.7V42.1z M67.7,30.2h30.2v-9.1H67.7V30.2z M101.5,101.5h30.2v-9.2h-30.2
	V101.5z M101.5,89.6h30.2v-9.2h-30.2V89.6z M101.5,77.7h30.2v-9.1h-30.2V77.7z M101.5,65.8h30.2v-9.1h-30.2V65.8z M101.5,53.9h30.2
	v-9.1h-30.2V53.9z M135.4,101.5h30.2v-9.2h-30.2V101.5z M135.4,89.6h30.2v-9.2h-30.2V89.6z M135.4,77.7h30.2v-9.1h-30.2V77.7z
	 M135.4,65.8h30.2v-9.1h-30.2V65.8z M135.4,53.9h30.2v-9.1h-30.2V53.9z M135.4,42.1h30.2V33h-30.2V42.1z M135.4,30.2h30.2v-9.1
	h-30.2V30.2z M135.4,18.3h30.2V9.2h-30.2V18.3z M191.2,89.7h7c10.4,0,12.1-5.5,12.1-22.9V31.9c0-15-1.3-20.1-13.2-20.1h-5.9V89.7z
	 M177.4,0H200c22.8,0,24.9,8,24.9,37.5v30.1c0,26-5.2,33.8-27.4,33.8h-20.1V0 M230.5,0h38.4v12.1h-24.7v31.8h22.9v11.9h-22.9v33.7
	h24.7v12.1h-38.4V0 M274.4,0h38.4v12.1h-24.7v31.8H311v11.9h-22.9v33.7h24.7v12.1h-38.4V0 M368.6,0H407v12.1h-24.7v31.8h22.9v11.9
	h-22.9v33.7H407v12.1h-38.4V0 M318.3,89.6l31.6-77.7h-31.6V0h44.8v11.9L332,89.6h31.1v11.9h-44.8V89.6 M426.2,44.8h4.3
	c11.1,0,12.8-1.4,12.8-16.6s-1.3-16.4-10.1-16.4h-7V44.8z M412.5,0h21.9c20.5,0,22,5.2,22,27.4c0,13.6-1.3,20.3-12.8,23.8l0,0
	c9.6,1,12.8,6,12.8,15.5v22.1c-0.1,4.2,0.2,8.5,0.9,12.7h-13.7c-1.4-2.5-0.9-5-0.9-9.1V69.5c0-9.6-1.8-11.9-11.1-11.9h-5.4v43.9
	h-13.7V0"/>
</svg>
