<?xml version="1.0" encoding="UTF-8"?>
<svg xmlns="http://www.w3.org/2000/svg" id="a" viewBox="0 0 465.7 175.89">
  <path d="M405.54,146.09h-2.08c-3.07,.28-4.73-.7-6.32-3.51-1.73-2.98-2.61-6.94-2.61-11.76V14.99c.11-5.5-2.38-10.16-6.84-12.78-4.8-2.82-11.24-2.83-16.03-.01-4.45,2.62-6.95,7.28-6.84,12.72v115.78c-.44,13.78,4.62,27.14,13.53,35.74,6.09,5.88,13.53,9.09,21.71,9.43l3.71,.03h1.79c9.61-.24,14.64-7.68,14.64-14.9s-5.03-14.66-14.64-14.9M333.1,0h-.34c-4.15,0-7.96,1.54-10.73,4.34-2.79,2.82-4.28,6.68-4.19,10.78V55.57c-18.49-12.03-41.91-13.52-62.8-3.57-23.23,11.06-37.52,33.58-37.27,58.9,1.76,44.56,34.97,64.83,65.11,64.83h.08c30.16-.03,63.37-20.38,65.04-65.09V15.19c.07-4.29-1.43-8.18-4.2-10.95C341.08,1.5,337.29,0,333.1,0m-14.65,110.74c0,19.67-15.96,35.67-35.57,35.67s-35.57-16-35.57-35.53c.97-24.47,19.12-35.62,35.58-35.61,16.45,0,34.6,11.15,35.57,35.47m147.24-50.5c.17-5.32-2.19-9.84-6.47-12.39-4.65-2.77-10.93-2.79-15.62-.04-4.35,2.55-6.77,7.07-6.65,12.31v101.05c-.08,3.94,1.39,7.62,4.11,10.35,2.66,2.67,6.22,4.14,10.04,4.14h.45c3.85,0,7.4-1.42,10.01-4.02,2.71-2.69,4.18-6.4,4.13-10.4V60.25Zm-14.42-31.28h.19c9.32-.24,14.19-7.45,14.19-14.45S460.78,.31,451.27,.07c-9.32,.24-14.19,7.45-14.19,14.45s4.87,14.21,14.19,14.45M200.82,117.1c-.02,5.3-.59,10.6-1.91,15.74-7.47,29.08-32.6,42.49-55.62,42.5h0c-23.49,0-49.17-13.96-56.05-44.3-1.02-4.48-1.46-9.06-1.49-13.65l-.22-27.04c-.06-5.55,2.5-10.27,7.03-12.91,4.89-2.86,11.21-2.86,16.1,0,4.52,2.64,7.09,7.36,7.03,12.94v28.79c0,15.23,12.36,27.62,27.55,27.62s27.67-13.2,27.67-28.82V60.79c-.08-4.06,1.46-7.92,4.32-10.79,2.85-2.86,6.66-4.48,10.76-4.33,4.21-.02,7.92,1.48,10.76,4.33,2.86,2.87,4.4,6.73,4.32,10.87l-.24,56.23ZM100.45,.01c5.54-.19,10.33,2.32,12.98,6.85,2.76,4.7,2.75,10.74-.03,15.4-2.66,4.45-7.49,6.9-13.09,6.66h-25.65c-23.03,0-42.34,23.76-44.23,46.38h22.95c5.58-.16,10.33,2.32,12.98,6.81,2.73,4.64,2.73,10.65,0,15.29-2.64,4.49-7.4,6.91-13.08,6.81H30.26l.35,56.06c.09,3.99-1.53,8-4.43,10.91-2.83,2.84-6.69,4.44-10.63,4.44-.21,0-.42,0-.64,0-3.79,0-7.65-1.61-10.48-4.44C1.53,168.26-.09,164.25,0,160.18V73.41C0,32.94,32.84,0,73.2,0h27.25Z" style="fill-rule:evenodd;"></path>
</svg>
