<?xml version="1.0" encoding="UTF-8"?>
<svg xmlns="http://www.w3.org/2000/svg" viewBox="0 0 129.57 63.74">
  <path id="uuid-c1ad5ba2-c93a-47d6-8511-50a7b86382de" d="m43.74,57.31c-.64.58-7.38,6.44-19.08,6.44C18.58,63.74.05,62.8.05,42.81v-19.04c-.09-.68.41-1.26,1.1-1.35h14.78c.73,0,1.28.59,1.33,1.26v22.01c0,3.74,2.15,8.1,8.88,8.1s9.81-3.93,9.88-11.91c-.03-.46-.04-.91-.04-1.37V9.09c0-2.52,1.65-4.73,8.56-4.73,7.55,0,8.37,2.88,8.37,5.09v13.05h13.41c.96,0,1.33.54,1.33,1.44v7.79c0,.72-.32,1.31-1.19,1.31h-8.88c-1.6-.05-3.2-.36-4.67-.86v5.45s.05-.04.05-.04v3.11c0,7.38,3.66,13.1,13.09,13.1,8.6,0,14.64-4.77,14.64-12.24-.05-2.38-.68-4.72-1.87-6.79l-.97-1.49c-.69-1.31-1.24-2.07-1.24-3.56,0-2.25,1.19-3.83,5.17-6.3,2.01-1.08,4.21-1.67,6.5-1.76,1.67,0,3.15.85,4.21,2.58h0s4.26,6.06,15.05,25.65c6.86-12.29,11.26-26.97,11.26-26.97.32-.99,1.14-1.26,2.29-.95l7.41,2.25c.92.32,1.37.63.87,2.3-4.07,11.25-9.38,22.06-15.83,32.19-1.83,2.7-3.75,5-10.02,5-5.08,0-6.82-1.71-8.6-4.28l-5.47-8.2c-.41.75-7.06,12.48-24.83,12.48-14.32.04-20.82-6.35-20.82-6.35l-.05-.04ZM8.65,0c5.58,0,8.65,3.96,8.65,8.6,0,5.13-3.8,8.19-8.56,8.19C3.48,16.79,0,13.33,0,8.37,0,3.78,3.29,0,8.65,0Z" stroke-width="0"></path>
</svg>
