<?xml version="1.0" encoding="utf-8"?>
<!-- Generator: Adobe Illustrator 27.8.0, SVG Export Plug-In . SVG Version: 6.00 Build 0)  -->
<svg version="1.1" id="Layer_1" xmlns="http://www.w3.org/2000/svg" xmlns:xlink="http://www.w3.org/1999/xlink" x="0px" y="0px"
	 viewBox="0 0 472.3 65.5" style="enable-background:new 0 0 472.3 65.5;" xml:space="preserve">
<path d="M21.7,36.1c0,7.2-1,14.8-15,14.8c-2.2,0-4.5-0.2-6.7-0.8v-6.2c2.1,1.1,4.5,1.7,7,1.8c6.3,0,6.8-4.4,6.8-9.7V0.7h7.9V36.1
	L21.7,36.1z M32.1,0.8h11.2c8.2,0,17.5,1.3,17.5,11.8c0,7-4.8,10.2-8.7,11.2v0.1c5.1,1,11,4,11,12.7c0,13.6-13.1,13.6-19.8,13.6
	H32.1V0.8z M40,21.8h3.3c5.7,0,9.6-1.9,9.6-8.6c0-6.5-3.8-7.7-9.6-7.7H40V21.8z M40,45.5h3.3c5.4,0,12-0.3,12-9.5
	c0-7.8-5.6-9.5-12-9.5H40V45.5L40,45.5z M100.5,47.7c-2.1,1.4-5.8,3.3-11.7,3.3C75.5,51,70,39.5,70,24.3C70,16,72.4,0,87.5,0
	c9.4,0,15,6.6,15,14.2h-5.4c0-4.9-2.3-10.9-9.7-10.9c-11,0-12.5,13.5-12.5,20.4c0,12.8,4.1,24,14.5,24c5.4,0,8.6-2.6,11.1-4.7V47.7z
	 M125.4,44.9L125.4,44.9c-2,3.7-5.8,6-9.9,6.1c-4.8,0.2-8.9-3.5-9.1-8.4c0-0.1,0-0.2,0-0.4c0-6.5,5.8-11.1,19-11.1v-2.3
	c0-5.3,0-10.8-7-10.8c-5.5,0-6.2,3.5-6.4,6.3h-4.9c0.5-3.7,2.4-9.1,11.7-9.1c9.2,0,10.4,6,10.4,11.7v23.2h-3.9L125.4,44.9z
	 M125.4,34c-3.3,0-14.7,0.1-14.7,7.8c0,3.4,2.6,5.6,5.9,5.6c6.5,0,8.7-6.7,8.7-11.4L125.4,34L125.4,34z M141.3,16.1h3.9V23h0.1
	c0.8-2.2,3.5-7.7,9.3-7.7c8.1,0,11.9,7.8,11.9,18.2c0,8.9-3.3,17.5-12,17.5c-6.4,0-8.6-5.4-9.2-7.6h-0.1v22.1h-3.9V16.1L141.3,16.1z
	 M154.3,48.2c5.6,0,7.8-7.6,7.8-14.5c0-7.9-2.2-15.5-7.9-15.5c-5.9,0-9.1,9.4-9.1,14.6C145.2,38,148.1,48.2,154.3,48.2L154.3,48.2z
	 M175.3,0.8h5v5.8h-5V0.8z M175.8,16.1h3.9v34.1h-3.9V16.1z M207.1,50.8c-1.2,0.1-2.3,0.2-3.5,0.2c-4.5,0-9.7-0.8-9.7-7.9v-24h-5.6
	v-2.9h5.6V8.3l4-2.5v10.4h8.9v2.9h-8.9v21.2c0,3.3,0,7.9,6.2,7.9c1,0,2.1-0.1,3.1-0.5L207.1,50.8z M230.7,44.9L230.7,44.9
	c-2,3.7-5.8,6-9.9,6.1c-4.8,0.2-8.9-3.6-9.1-8.4c0-0.1,0-0.2,0-0.3c0-6.5,5.8-11.1,19-11.1v-2.3c0-5.3,0-10.8-7-10.8
	c-5.5,0-6.2,3.5-6.4,6.3h-4.9c0.5-3.7,2.4-9.1,11.7-9.1c9.2,0,10.4,6,10.4,11.7v23.2h-3.9L230.7,44.9L230.7,44.9L230.7,44.9z
	 M230.7,34c-3.3,0-14.7,0.1-14.7,7.8c0,3.4,2.6,5.6,5.9,5.6c6.5,0,8.7-6.7,8.7-11.4L230.7,34L230.7,34z M246.6,0.8h3.9v49.4h-3.9
	V0.8z M297.7,0.8h6.9v49.4h-4.5V4.6H300l-14.5,45.6h-4.3L266.6,4.6h-0.1v45.6h-3.7V0.8h6.6l14,44h0.1L297.7,0.8z M332.9,44.9h-0.2
	c-1.9,3.7-5.7,6-9.8,6.1c-4.8,0.2-8.9-3.6-9.1-8.4c0-0.1,0-0.2,0-0.3c0-6.5,5.8-11.1,19-11.1v-2.3c0-5.3,0-10.8-7-10.8
	c-5.5,0-6.2,3.5-6.4,6.3h-4.9c0.5-3.7,2.4-9.1,11.7-9.1c9.2,0,10.4,6,10.4,11.7v23.2h-3.9L332.9,44.9L332.9,44.9z M332.9,34
	c-3.3,0-14.7,0.1-14.7,7.8c0,3.4,2.6,5.6,5.9,5.6c6.5,0,8.7-6.7,8.7-11.4L332.9,34L332.9,34z M348.7,16.1h3.9v7.6h0.1
	c2.3-4.3,5.4-8,10.6-8.3v5.1h-1.2c-7.4,0-9.5,7.2-9.5,12.5v17.2h-3.9V16.1z M371.2,0.8h3.9v30.8h0.2l12.5-15.5h4.4l-12.7,15.4
	l14.2,18.7h-4.8l-13.6-18.1h-0.2v18.1h-3.9V0.8z M421.6,50.2c-2.4,0.6-4.8,0.8-7.2,0.8c-11.1,0-16.7-6.5-16.7-18.7
	c0-9.9,3.6-17,13.1-17c5.7,0,11.3,3.3,11.3,13.6H402c0,16.5,8.8,19.1,13.3,19.1c2.1,0,4.2-0.3,6.2-0.9v3.1H421.6z M417.8,26.2
	c0-2.6-0.9-8-7.5-8c-6.6,0-7.7,5.5-7.9,8H417.8z M445.5,50.8c-1.2,0.1-2.3,0.2-3.5,0.2c-4.5,0-9.7-0.8-9.7-7.9v-24h-5.6v-2.9h5.6
	V8.3l3.9-2.4v10.4h9v2.9h-8.9v21.2c0,3.3,0,7.9,6.2,7.9c1.1,0,2.1-0.2,3.1-0.5L445.5,50.8L445.5,50.8L445.5,50.8z M470.1,20.8
	c-1.4-0.6-4.8-2.5-8.8-2.5c-3.6,0-6.7,1.4-6.7,4.8c0,3.9,3.2,4.8,7.5,7c4.7,2.3,10.2,4,10.2,10.8c0,4.7-2.5,10.2-12.6,10.2
	c-4.8,0-7.8-0.8-9.5-1.5v-4.4c3,1.6,6.4,2.5,9.8,2.6c4.8,0,7.9-2,7.9-6.2c0-5-5-5.9-12-9.5c-2.6-1.4-5.3-4-5.3-7.9
	c0-6.4,5.2-8.8,11.4-8.8c2.7,0.1,5.4,0.5,8,1.2v4.2l0,0H470.1z"/>
</svg>
