<?xml version="1.0" encoding="utf-8"?>
<!-- Generator: Adobe Illustrator 27.8.0, SVG Export Plug-In . SVG Version: 6.00 Build 0)  -->
<svg version="1.1" id="Layer_1" xmlns="http://www.w3.org/2000/svg" xmlns:xlink="http://www.w3.org/1999/xlink" x="0px" y="0px"
	 viewBox="0 0 480.6 119.5" style="enable-background:new 0 0 480.6 119.5;" xml:space="preserve">
<path d="M281.2,34.4c-15.5,7-28.9,7.5-28.9,7.5V10.6h12.3L257.3,0l-13.5,0.1l-2.9,4.2L238,0.1L224.5,0l-7.3,10.6h12.4v31.2
	c0,0-13.3-0.5-28.9-7.5l-9.1,12.5c0,0,2.3,1.1,12.1,4.5l2.9-4.4c0,0,15,5.4,34.3,5.3c19.3,0.1,34.3-5.3,34.3-5.3l2.9,4.4
	c9.8-3.4,12.1-4.5,12.1-4.5L281.2,34.4z M239.8,49.6c-16.9,0.5-34-5.4-34-5.4l-2.9,4.2c-5.7-1.7-7.7-2.8-7.7-2.8l6.1-8.4
	c15,6.5,30.3,7.1,30.3,7.1v-36h-10.4l4.3-6.1h11.2l3.1,4.5V49.6L239.8,49.6z M276.1,44.2c0,0-17.2,6-34,5.4V6.7l3.1-4.5h11.2
	l4.3,6.1h-10.4v36c0,0,15.2-0.6,30.3-7.1l6.1,8.4c0,0-2,1.1-7.7,2.8L276.1,44.2z M470.1,83.2c0,0-4.7,2.6-12.3,11.6h-4.6
	c0,0-1.2,0.3-1.2-1.2V82c0,0-0.2-1.1,1-1.1h3.4c0,0,0.9-0.1,1.7,1.4l0.5,1c0,0,0.3,1.1,1.7,0.8c0,0,1.3,0.2,0.9-1.3
	s-0.1-0.2-0.1-0.2l-2-6c0,0-0.1-0.8-1.1-0.8l-0.9-0.1c0,0-1-0.1-0.8,1.1c0,0,0.3,1.3-1.1,1.3h-2c0,0-1.1,0.3-1.1-1.7V73
	c0,0-0.2-1,1.3-1h7c0,0,1.6-0.5,2.6,1.7l0.5,1.1c0,0,0,1.1,1.6,0.8c0,0,1.7,0.2,1.2-1.4l-1.3-3.9c0,0-0.1-0.9-1.2-0.9h-20
	c0,0-1.1-0.3-1.1,1v0.7c0,0-0.2,0.6,1.1,0.9c0,0,1.5,0.1,1.5,2l-0.1,19c0,0,0,1.7-1.1,2.1c0,0-1.3-0.4-1.3,1.1c0,0-0.5,1.2,1.3,1.3
	h9.6c0,0,1.7-0.1,0.8,1.1c0,0-3.4,5.6-10,9.5c0,0-4.2,2.7-11.7,2.8h-388c0,0-8.2,0.8-12.5-3.5l-6.5-7.2c0,0-0.5-0.9,0.4-1.1
	c0,0,8-1.5,10.8-6.9c2.8-5.4,3.2-9.3,3.2-13.2V61c0,0-0.3-1.3,1.3-1.3h1.6c0,0,0.8,0.3,0.8-1.3v-0.7c0,0,0.5-1.1-1-1.1H29
	c0,0-1-0.3-1.1,0.9v0.9c0,0-0.4,1.2,1.2,1.2h1.1c0,0,1.8-0.3,1.7,2v21.8c0,0,0.9,11.4-9.3,12.8c0,0-6.7-9.8-10.8-12.1
	c0,0-5.9-4.4-10.4-0.3c0,0-4.5,5.1,2.4,11c0,0,6.9,5.5,18,5.2c0,0,5.9,8.9,7.2,10.4c0,0,4.4,5.2,8,6.7s4.2,2.4,16.8,2.4h371.3
	c0,0,9.6,0.6,15-2.6c0,0,4.4-2.1,9.3-7.6l9.8-11.7c0,0,10,0.3,15.4-3.2c0,0,5.5-2.8,5.9-7.3C481,82.5,476.6,80.1,470.1,83.2z
	 M11.4,95.4c-4.3-2-3.1-4.8-3.1-4.8c0.9-2.1,3.8-0.7,3.8-0.7c3.6,1.5,7.3,7.2,7.3,7.2C14.5,97.7,11.4,95.4,11.4,95.4z M470.1,93.2
	c-2.9,2-9,1.7-9,1.7c1-1.7,4.8-5.4,4.8-5.4c3.1-2.7,5.2-1.4,5.2-1.4C474,90.7,470.1,93.2,470.1,93.2z M71.9,96c0,0,0.1-0.7-1.1-1
	c0,0-1.3-0.1-2-2l-7.7-22.7c0,0,0.1-1.1-1.2-1.1h-6.1c0,0-0.9,0-1.4,1.3l-8.6,22.9c0,0,0.1,1.5-2.8,1.5c0,0-1.1,0.1-0.9,1.2v0.8
	c0,0-0.1,0.9,1.2,0.9h7.4c0,0,1,0.1,1-0.7v-0.8c0,0,0.3-1-0.9-1.2c0,0-2-0.3-1.3-2.1l1.1-2.5h12.1l1.1,2.9c0,0,0.5,1.4-0.5,1.6
	c0,0-1.4,0.1-1.4,0.8v1c0,0-0.4,1,1.4,1h9.6c0,0,1.1,0.3,1.1-0.9L71.9,96z M58.8,87.4h-7.7c-2,0-0.9-1.8-0.9-1.8l4-10.5
	c0.8-1.6,1.6,0,1.6,0l3.4,10.3C60,87.9,58.8,87.4,58.8,87.4z M250.8,94.7h-4.6c0,0-1.2,0.3-1.2-1.2V81.9c0,0-0.2-1.1,1-1.1h3.4
	c0,0,0.9-0.1,1.7,1.4l0.5,1c0,0,0.3,1.1,1.7,0.8c0,0,1.3,0.2,0.9-1.3c-0.4-1.5-0.1-0.2-0.1-0.2l-2-6c0,0-0.1-0.8-1.1-0.8l-0.9-0.1
	c0,0-1-0.1-0.8,1.1c0,0,0.3,1.3-1.1,1.3h-2c0,0-1.1,0.3-1.1-1.7v-3.4c0,0-0.2-1,1.3-1h7c0,0,1.6-0.5,2.6,1.7l0.5,1.1
	c0,0,0,1.1,1.6,0.8c0,0,1.7,0.2,1.2-1.4l-1.3-3.9c0,0-0.1-0.9-1.2-0.9h-20c0,0-1.1-0.3-1.1,1V71c0,0-0.2,0.6,1.1,0.9
	c0,0,1.5,0.1,1.5,2l-0.1,19c0,0,0,1.7-1.1,2.1c0,0-1.3-0.4-1.3,1.1c0,0-0.5,1.2,1.3,1.3h9.6h10.6c0,0,0.7,0.3,1.2-0.6l1.7-4
	c0,0,0.6-1.3-0.7-1.3h-1.3c0,0-0.7-0.2-1,0.6l-0.7,1.3c0,0-0.1,1.1-2.1,1.2L250.8,94.7L250.8,94.7z M90.1,94.7h-4.6
	c0,0-1.2,0.3-1.2-1.2V81.9c0,0-0.2-1.1,1-1.1h3.4c0,0,0.9-0.1,1.7,1.4l0.5,1c0,0,0.3,1.1,1.7,0.8c0,0,1.3,0.2,0.9-1.3
	s-0.1-0.2-0.1-0.2l-2-6c0,0-0.1-0.8-1.1-0.8l-0.9-0.1c0,0-1-0.1-0.8,1.1c0,0,0.3,1.3-1.1,1.3h-2c0,0-1.1,0.3-1.1-1.7v-3.4
	c0,0-0.2-1,1.3-1h7c0,0,1.6-0.5,2.6,1.7l0.5,1.1c0,0,0,1.1,1.6,0.8c0,0,1.7,0.2,1.2-1.4l-1.3-3.9c0,0-0.1-0.9-1.2-0.9h-20
	c0,0-1.1-0.3-1.1,1V71c0,0-0.2,0.6,1.1,0.9c0,0,1.5,0.1,1.5,2l-0.1,19c0,0,0,1.7-1.1,2.1c0,0-1.3-0.4-1.3,1.1c0,0-0.5,1.2,1.3,1.3
	H86h10.6c0,0,0.7,0.3,1.2-0.6l1.7-4c0,0,0.6-1.3-0.7-1.3h-1.3c0,0-0.7-0.2-1,0.6l-0.7,1.3c0,0-0.1,1.1-2.1,1.2L90.1,94.7L90.1,94.7z
	 M147.4,95h-4.6c0,0-1.2,0.3-1.2-1.2V82.2c0,0-0.2-1.1,1-1.1h3.4c0,0,0.9-0.1,1.7,1.4l0.5,1c0,0,0.3,1.1,1.7,0.8
	c0,0,1.3,0.2,0.9-1.3c-0.4-1.5-0.1-0.2-0.1-0.2l-2-6c0,0-0.1-0.8-1.1-0.8l-0.9-0.1c0,0-1-0.1-0.8,1.1c0,0,0.3,1.3-1.1,1.3h-2
	c0,0-1.1,0.3-1.1-1.7v-3.4c0,0-0.2-1,1.3-1h7c0,0,1.6-0.5,2.6,1.7l0.5,1.1c0,0,0,1.1,1.6,0.8c0,0,1.7,0.2,1.2-1.4l-1.3-3.9
	c0,0-0.1-0.9-1.2-0.9h-20c0,0-1.1-0.3-1.1,1v0.7c0,0-0.2,0.6,1.1,0.9c0,0,1.5,0.1,1.5,2l-0.1,19c0,0,0,1.7-1.1,2.1
	c0,0-1.3-0.4-1.3,1.1c0,0-0.5,1.2,1.3,1.3h9.6h10.6c0,0,0.7,0.3,1.2-0.6l1.7-4c0,0,0.6-1.3-0.7-1.3h-1.3c0,0-0.7-0.2-1,0.6l-0.7,1.3
	c0,0-0.1,1.1-2.1,1.2L147.4,95L147.4,95z M115.2,68.8c0,0-13-0.1-13.9,14.4c-1,14.6,13.3,14.8,13.3,14.8s4.8,0.6,11.1-3.6
	c0,0,0.9-0.7,1-2l0.3-2.7c0,0-0.6-2.2,1.8-2.2c0,0,0.9-0.1,0.9-1.1v-0.5c0,0,0.1-0.9-1.5-0.9H118c0,0-1.1-0.2-1.1,0.7v0.7
	c0,0-0.1,0.9,1.1,0.9c0,0,2.5-0.2,2.5,2.3c0,0,0.5,5.9-5.7,5.9c-6.3,0-6.1-5.9-6.3-13.4s2.2-11.1,7.3-11c5.1,0.1,6.9,4.2,7.4,5.1
	c0,0,0.3,0.9,1.5,0.8l1.3-0.5c0,0,0.8,0.2,0.5-1l-1.7-5.5c0,0,0-1-1-0.8c0,0-0.6-0.1-0.9,0.6c0,0,0.2,1.5-2.3,0.5
	C120.5,70.3,118.5,68.8,115.2,68.8z M191.5,96.1c0,0,0.1-0.7-1.1-0.8h-0.6c0,0-1.6,0.2-3.1-2.2c0,0-3.8-7.1-6.1-8.7
	c0,0-0.7-0.6,0-0.8c0,0,3.2-0.6,5-2.4c0,0,2.2-0.9,2.1-5.2c0,0,0.5-6.4-8.8-6.5h-17.1l0,0l0,0c0,0-1.1-0.3-1.1,1v0.7
	c0,0-0.2,0.6,1.1,0.9c0,0,1.5,0.1,1.5,2l-0.1,19c0,0,0.2,2-1.4,2.1c0,0-1.4-0.2-1.3,1.2c0,0-0.5,1.4,1.4,1.5h9.4
	c0,0,1.4,0.3,1.4-0.7v-1.1c0,0,0.1-0.9-1.3-0.9c-0.4-0.1-1.3-0.5-1.4-1.7v-7.9c0,0-0.2-1.1,1-1.1l0,0h1.9c0,0,2.4-0.2,3.6,2.2
	l4.2,7.8c0,0,1.3,3.2,4.8,3.2h5.4c0,0,0.8,0.2,0.8-0.9L191.5,96.1z M175.9,81.9l-4.9-0.1l0,0l0,0h-0.1l0,0c-0.3,0-0.9-0.2-0.9-1.7
	v-7.2c0,0-0.2-1,1.3-1l5.6,0.1c0,0,4.5,0,4.6,4.3C181.4,80.5,179.2,81.9,175.9,81.9z M441.2,96.1c0,0,0.1-0.7-1.1-0.8h-0.6
	c0,0-1.6,0.2-3.1-2.2c0,0-3.8-7.1-6.1-8.7c0,0-0.7-0.6,0-0.8c0,0,3.2-0.6,5-2.4c0,0,2.2-0.9,2.1-5.2c0,0,0.5-6.4-8.8-6.5h-17.1l0,0
	l0,0c0,0-1.1-0.3-1.1,1v0.7c0,0-0.2,0.6,1.1,0.9c0,0,1.5,0.1,1.5,2l-0.1,19c0,0,0.2,2-1.4,2.1c0,0-1.4-0.2-1.3,1.2
	c0,0-0.5,1.4,1.4,1.5h9.4c0,0,1.4,0.3,1.4-0.7v-1.1c0,0,0.1-0.9-1.3-0.9c-0.4-0.1-1.3-0.5-1.4-1.7v-7.9c0,0-0.2-1.1,1-1.1l0,0h1.9
	c0,0,2.4-0.2,3.6,2.2l4.2,7.8c0,0,1.3,3.2,4.8,3.2h5.4c0,0,0.8,0.2,0.8-0.9L441.2,96.1z M425.6,81.9l-4.9-0.1l0,0l0,0h-0.1l0,0
	c-0.3,0-0.9-0.2-0.9-1.7v-7.2c0,0-0.2-1,1.3-1l5.6,0.1c0,0,4.5,0,4.6,4.3C431.1,80.5,428.9,81.9,425.6,81.9z M205.5,85.8
	c0.6,0,1.1-0.5,1.1-1.1v-2.4c0-0.6-0.5-1.1-1.1-1.1h-11c-0.6,0-1.1,0.5-1.1,1.1v2.4c0,0.6,0.5,1.1,1.1,1.1H205.5z M211.7,69.2
	c0,0-0.8,0.1-0.8,0.8v0.9c0,0-0.1,1,1.2,0.8c0,0,2.2-0.2,2.2,2v19.6c0,0,0.2,1.5-1.5,1.5c0,0-1.1-0.1-1.2,0.8v1.1c0,0,0,1,0.9,1.1
	h18.2c0,0,0.6,0.3,1.3-1.1l1.8-4c0,0,0.5-1.1-0.6-1.1h-1.3c0,0-0.7,0-1,0.6l-0.7,1.3c0,0-0.7,1.5-2.4,1.3h-5.4c0,0-1.6,0.2-1.6-1.3
	V73.7c0,0-0.2-1.8,1.4-1.9h0.8c0,0,0.7,0.1,0.7-1v-0.7c0,0,0.2-0.9-1-0.9H211.7L211.7,69.2z M363,69.2c0,0-0.8,0.1-0.8,0.8v0.9
	c0,0-0.1,1,1.2,0.8c0,0,2.2-0.2,2.2,2v19.6c0,0,0.2,1.5-1.5,1.5c0,0-1.1-0.1-1.2,0.8v1.1c0,0,0,1,0.9,1.1H382c0,0,0.6,0.3,1.3-1.1
	l1.8-4c0,0,0.5-1.1-0.6-1.1h-1.3c0,0-0.7,0-1,0.6l-0.7,1.3c0,0-0.7,1.5-2.4,1.3h-5.4c0,0-1.6,0.2-1.6-1.3V73.7c0,0-0.2-1.8,1.4-1.9
	h0.8c0,0,0.7,0.1,0.7-1v-0.7c0,0,0.2-0.9-1-0.9H363L363,69.2z M280.9,56.2c0,0-18-0.9-18.2,21.2c0,0-0.8,19.3,17.8,20.2
	c0,0,4.3,0.3,8.1-2.2c0,0,1.2-0.5,1.5,0.5c0,0,0.2,1.3,1.6,1.2c0,0,1.4-0.1,1.5-1.3l2.5-7.6c0,0,0.5-1.3-0.6-1.3l-0.9-0.1
	c0,0-0.7,0-1.1,0.9c0,0-1.3,3.1-3,4.2c0,0-2.5,3-8.3,2.8c0,0-10.8,0.3-10.4-17.5c0,0-0.9-18.4,10.7-18.3c0,0,5.6-0.4,9.6,5.6
	c0,0,0.5,1.1,1.7,1.1h1.1c0,0,0.9,0.1,0.6-1.5l-1.8-7c0,0-0.2-0.9-0.9-0.9h-1.3c0,0-0.6,0.2-0.5,0.9c0,0,0.2,0.9-0.3,1.1
	c0,0-0.3,0.5-1.3,0C289.1,58.6,285.8,56.4,280.9,56.2z M306.4,88.8C306.4,88.9,306.4,88.9,306.4,88.8
	C306.4,88.9,306.4,88.9,306.4,88.8z M327.3,83.1c-0.3-14.3-14.2-14.2-14.2-14.2s-13.9-0.1-14.2,14.2c0,0-0.2,14.1,14.2,14.7
	C327.5,97.2,327.3,83.1,327.3,83.1z M319.7,89.1c-1.3,7-6.7,6-6.7,6s-5.4,1-6.7-6c-1.2-6.5-0.2-1,0-0.3c-0.1-0.7-1.1-6.5,0.4-13.2
	c0,0,1.2-4.5,6.3-4.4c5.1-0.1,6.3,4.4,6.3,4.4c1.4,6.7,0.5,12.4,0.4,13.2C319.9,88.1,320.9,82.6,319.7,89.1z M319.7,88.8
	C319.7,88.9,319.7,88.9,319.7,88.8C319.7,88.9,319.7,88.9,319.7,88.8z M331.2,69.2c0,0-1,0-1,0.8v0.9c0,0-0.1,0.9,1.2,0.9l0.6-0.1
	c0,0,1.3-0.2,1.3,1.9V88c0,0,0.5,9.9,11.7,9.9c0,0,11.5,0.6,11.1-10.3V73.3c0,0-0.3-1.7,1.5-1.7h0.5c0,0,0.7,0,0.7-0.8V70
	c0,0,0.3-0.9-0.8-0.9h-6.7c0,0-0.9,0-0.9,0.7l-0.1,0.7c0,0-0.2,1.1,1,1.1c0,0,1.8-0.3,1.9,2.1v14c0,0,0.7,7.3-5.9,7.3
	c0,0-7.4,1.3-7.4-7.8v-14c0,0,0.2-1.6,1.6-1.6h0.4c0,0,0.7,0.1,0.7-0.9V70c0,0,0.2-0.9-0.7-0.9h-10.7V69.2z M383.2,69.2
	c0,0-0.8,0-1.2,0.7l-1.7,4.2c0,0-0.4,0.9,0.6,0.9h1.3c0,0,0.5,0.2,1-0.8l1-1.9c0,0,0.5-0.7,1.4-0.6h4c0,0,1.2-0.2,1.2,1.5v20.3
	c0,0,0.2,1.4-0.6,1.5h-1.1c0,0-0.6,0.1-0.6,0.7v1.1c0,0-0.1,0.8,0.8,0.8h10.5c0,0,0.7,0.1,0.7-0.7v-0.8c0,0,0.2-1-0.6-1h-1.2
	c0,0-1.3,0.3-1.2-1.9V73.3c0,0-0.4-1.5,1.1-1.5h4c0,0,0.8-0.2,1.4,0.8l1,1.7c0,0,0.4,0.8,1.3,0.8h1.3c0,0,0.9,0,0.5-1.1l-1.8-4.2
	c0,0-0.1-0.6-1.4-0.6H383.2z"/>
</svg>
