<?xml version="1.0" encoding="utf-8"?>
<!-- Generator: Adobe Illustrator 27.8.0, SVG Export Plug-In . SVG Version: 6.00 Build 0)  -->
<svg version="1.1" id="Layer_1" xmlns="http://www.w3.org/2000/svg" xmlns:xlink="http://www.w3.org/1999/xlink" x="0px" y="0px"
	 viewBox="0 0 113 40" style="enable-background:new 0 0 113 40;" xml:space="preserve">
<style type="text/css">
	.st0{fill-rule:evenodd;clip-rule:evenodd;}
</style>
<path class="st0" d="M86.8,34.5c0,2.1-1.2,4-3.2,4.8c-2,0.8-4.2,0.4-5.7-1.1c-1.5-1.5-1.9-3.7-1.2-5.7c0.8-2,2.7-3.2,4.8-3.2
	C84.4,29.4,86.8,31.7,86.8,34.5 M113,34.5c0,2.1-1.2,4-3.2,4.8c-1.9,0.8-4.2,0.4-5.7-1.1c-1.5-1.5-1.9-3.7-1.1-5.7
	c0.8-2,2.7-3.2,4.8-3.2c1.4,0,2.7,0.5,3.7,1.5C112.4,31.9,113,33.2,113,34.5 M100,34.5c0,2.1-1.2,4-3.2,4.9
	c-1.9,0.8-4.2,0.4-5.7-1.1c-1.5-1.5-2-3.7-1.2-5.7c0.8-1.9,2.7-3.2,4.8-3.2c1.4,0,2.7,0.5,3.7,1.5C99.5,31.9,100,33.2,100,34.5
	 M107.5,7.2c-1.5,0-2.5,0.8-2.7,2.5c0,0.1,0,0.1,0.1,0.2c0,0,0.1,0.1,0.2,0.1h4.7c0.1,0,0.1,0,0.2-0.1c0.1-0.1,0.1-0.1,0.1-0.2
	C109.8,8,108.9,7.2,107.5,7.2L107.5,7.2L107.5,7.2z M68.8,7.2c-1.5,0-2.5,0.8-2.7,2.5c0,0.1,0,0.1,0.1,0.2c0,0.1,0.1,0.1,0.2,0.1
	h4.7c0.1,0,0.1,0,0.2-0.1c0.1-0.1,0.1-0.1,0.1-0.2C71.2,8.1,70.3,7.2,68.8,7.2L68.8,7.2L68.8,7.2z M81.5,7.3c-1.7,0-2.8,1.2-2.8,3.1
	v1c0,1.9,1.1,3.1,2.8,3.1c0.8,0,1.6-0.3,2.2-0.8c0.2-0.2,0.3-0.4,0.3-0.6V8.8c0-0.3-0.1-0.5-0.3-0.7C83.1,7.6,82.3,7.3,81.5,7.3
	L81.5,7.3L81.5,7.3z M94.2,7.3c-1.7,0-2.8,1.2-2.8,3.1v1.1c0,1.9,1.1,3.1,2.8,3.1c0.8,0,1.6-0.3,2.2-0.8c0.2-0.1,0.3-0.4,0.3-0.6
	V8.7c0-0.3-0.1-0.5-0.3-0.7C95.8,7.5,95,7.2,94.2,7.3L94.2,7.3L94.2,7.3z M32.5,7.2c-1.8,0-3,1.3-3,3.1v1.3c0,1.9,1.2,3.1,3,3.1
	c1.8,0,3-1.3,3-3.1v-1.3C35.5,8.4,34.3,7.2,32.5,7.2L32.5,7.2z M10.1,0h2.3c0.1,0,0.2,0,0.2,0.1c0.1,0.1,0.1,0.2,0.1,0.2l-0.1,0.5
	C12.4,4,10.9,6.7,8.6,8.3c-0.1,0-0.1,0.1-0.1,0.2c0,0.1,0,0.1,0,0.2l4.8,7.7c0.1,0.1,0,0.2,0,0.3c-0.1,0.1-0.2,0.2-0.3,0.2h-2.6
	c-0.1,0-0.3-0.1-0.3-0.2L5.9,9.8C5.9,9.6,5.7,9.6,5.6,9.6C4.9,9.8,4.1,9.9,3.4,9.9H3.3c-0.1,0-0.1,0-0.2,0.1C3,10.1,3,10.1,3,10.2
	v6.3c0,0.2-0.1,0.3-0.3,0.3H0.4c-0.2,0-0.3-0.1-0.3-0.3V0.3C0.1,0.2,0.2,0,0.4,0h2.3C2.9,0,3,0.2,3,0.3v7c0,0.1,0.1,0.2,0.2,0.2h0.1
	c3.8,0,5.9-3.5,6.3-6.8l0.1-0.4c0-0.1,0-0.2,0.1-0.2C9.9,0,10,0,10.1,0L10.1,0L10.1,0z M41.7,5.1c0.2,0,0.4,0.1,0.5,0.3l2.1,7.7
	c0,0.1,0.1,0.1,0.1,0.1s0.1,0,0.1-0.1l2.7-6.6c0.1-0.2,0.2-0.2,0.4-0.3h0.1c0.2,0,0.3,0.1,0.4,0.3l2.6,6.6c0,0.1,0.1,0.1,0.2,0.1
	c0.1,0,0.1-0.1,0.2-0.1l2.1-7.7c0-0.2,0.2-0.3,0.4-0.3h2.2c0.1,0,0.2,0,0.2,0.1c0.1,0.1,0.1,0.2,0,0.3l-3.3,11.1
	c-0.1,0.2-0.2,0.3-0.4,0.3h-2.2c-0.2,0-0.3-0.1-0.4-0.3l-1.9-4.8c0-0.1-0.1-0.1-0.2-0.1c-0.1,0-0.1,0-0.2,0.1l-1.9,4.8
	c-0.1,0.2-0.2,0.3-0.4,0.3h-2.2c-0.2,0-0.4-0.1-0.4-0.3L39.2,5.4c0-0.1,0-0.2,0-0.3C39.3,5.1,39.4,5,39.5,5L41.7,5.1L41.7,5.1z
	 M60.4,0c0.1,0,0.2,0,0.2,0.1c0.1,0.1,0.1,0.2,0.1,0.2v16.1c0,0.1,0,0.2-0.1,0.2c-0.1,0.1-0.2,0.1-0.2,0.1h-2.2
	c-0.1,0-0.2,0-0.2-0.1c-0.1-0.1-0.1-0.1-0.1-0.2V0.4c0-0.1,0-0.2,0.1-0.2C58,0.1,58.1,0,58.2,0H60.4z M21,4.8c2.6,0,4.1,1.7,4.1,4.6
	v7.1c0,0.1,0,0.2-0.1,0.2c-0.1,0.1-0.2,0.1-0.2,0.1h-2.2c-0.2,0-0.3-0.1-0.3-0.3V9.6c0-1.7-0.9-2.2-2.1-2.2c-0.8,0-1.6,0.3-2.1,0.8
	c-0.2,0.2-0.3,0.4-0.3,0.7v7.6c0,0.1,0,0.2-0.1,0.2c-0.1,0.1-0.1,0.1-0.2,0.1h-2.3c-0.1,0-0.2,0-0.2-0.1c-0.1-0.1-0.1-0.1-0.1-0.2
	V5.3c0-0.1,0-0.2,0.1-0.2S14.9,5,14.9,5h1.9c0.1,0,0.3,0.1,0.3,0.2l0.2,0.9c0,0.1,0.2,0.2,0.3,0C18.5,5.3,19.7,4.8,21,4.8L21,4.8
	L21,4.8z M86.6,0c0.2,0,0.3,0.2,0.3,0.3v16.1c0,0.2-0.2,0.3-0.3,0.3h-1.9c-0.1,0-0.3-0.1-0.3-0.2l-0.2-0.9c0,0-0.1-0.1-0.1-0.1
	c-0.1,0-0.1,0-0.1,0.1c-0.8,0.9-2,1.4-3.3,1.4c-2.8,0-4.8-2.2-4.8-5.5l0-1.2c0-3.4,2.2-5.5,4.8-5.5c1.1,0,2.2,0.4,3,1.2
	c0,0.1,0.1,0.1,0.2,0C84,6.1,84,6,84,5.9V0.4c0-0.1,0-0.2,0.1-0.2C84.2,0.1,84.3,0,84.4,0L86.6,0L86.6,0z M107.5,4.8
	c3.2,0,5.5,2.2,5.5,5.5v1.1c0,0.1,0,0.2-0.1,0.3c-0.1,0.1-0.2,0.1-0.3,0.1H105c-0.1,0-0.2,0.1-0.2,0.2c0.2,1.7,1.4,2.7,3.1,2.7
	c0.8,0,1.5-0.2,2.1-0.7c0.1-0.1,0.3-0.1,0.4,0l1.6,1.2c0.1,0.1,0.1,0.2,0.1,0.3c0,0.1-0.1,0.2-0.1,0.3c-1.1,1-2.5,1.4-4.1,1.4
	c-3.4,0-6-2.3-6-5.5v-1.2C101.9,7,104.2,4.8,107.5,4.8L107.5,4.8L107.5,4.8z M68.8,4.8c3.2,0,5.5,2.2,5.5,5.5v1.1
	c0,0.1,0,0.2-0.1,0.3c-0.1,0.1-0.2,0.1-0.3,0.1h-7.6c-0.1,0-0.2,0.1-0.2,0.2c0.2,1.7,1.4,2.7,3.1,2.7c0.8,0,1.5-0.2,2.1-0.7
	c0.1-0.1,0.3-0.1,0.4,0l1.6,1.2c0.1,0.1,0.1,0.2,0.1,0.3c0,0.1-0.1,0.2-0.1,0.3c-1.1,0.9-2.4,1.4-4,1.4c-3.4,0-6-2.3-6-5.5l0-1.3
	C63.2,7,65.5,4.8,68.8,4.8L68.8,4.8L68.8,4.8z M32.5,4.8c3.3,0,5.8,2.3,5.8,5.5v1.3c0,3.2-2.5,5.5-5.8,5.5s-5.8-2.3-5.8-5.5v-1.3
	C26.7,7.1,29.2,4.8,32.5,4.8L32.5,4.8z M96.6,6.2c0,0,0.1,0.1,0.1,0c0,0,0.1,0,0.1-0.1l0.2-0.8C97.1,5.1,97.3,5,97.4,5h1.9
	c0.2,0,0.3,0.2,0.3,0.3v11.9c0,3.3-2.3,5.3-5.9,5.3c-1.2,0-2.4-0.3-3.5-0.9c-0.1,0-0.1-0.1-0.2-0.2c0-0.1,0-0.2,0-0.3l0.8-1.3
	c0.1-0.2,0.3-0.2,0.5-0.1c0.7,0.4,1.4,0.5,2.1,0.5c2,0,3.1-1.1,3.1-3v-1.5c0-0.1,0-0.1-0.1-0.1c-0.1,0-0.1,0-0.2,0
	c-0.8,0.9-1.9,1.4-3.1,1.4c-2.8,0-4.8-2.2-4.8-5.5v-1.2c0-3.4,2.2-5.5,4.9-5.5C94.6,4.8,95.8,5.3,96.6,6.2L96.6,6.2L96.6,6.2z
	 M72.1,24.1h-0.6c-0.1,0-0.1,0-0.1,0.1V25c0,0,0,0.1,0.1,0.1h0.6c0.1,0,0.3,0,0.4-0.1c0.1-0.1,0.1-0.2,0.1-0.4v0
	c0-0.1-0.1-0.3-0.2-0.4C72.3,24.1,72.2,24.1,72.1,24.1L72.1,24.1L72.1,24.1z M72.2,23.5c0.3,0,0.6,0.1,0.8,0.3
	c0.2,0.2,0.3,0.4,0.3,0.7v0.1c0,0.4-0.2,0.8-0.7,1c0,0-0.1,0.1-0.1,0.1c0.1,0.4,0.4,0.7,0.8,0.7c0.1,0,0.1,0.1,0.1,0.1v0.4
	c0,0,0,0.1-0.1,0.1c-0.7,0-1.3-0.5-1.4-1.2c0,0,0-0.1-0.1-0.1h-0.4c-0.1,0-0.1,0-0.1,0.1v1.1c0,0.1-0.1,0.1-0.1,0.1h-0.5
	c-0.1,0-0.1,0-0.1-0.1v-3.2c0,0,0-0.1,0-0.1c0,0,0.1,0,0.1,0l0,0L72.2,23.5L72.2,23.5z M70.3,23.6c-0.4,0.5-0.7,1.1-0.7,1.7l0,0
	c0,1.3,1.1,2.4,2.3,2.4c1.3,0,2.3-1.1,2.3-2.4c0-1.3-1.1-2.4-2.3-2.4C71.3,22.9,70.7,23.1,70.3,23.6L70.3,23.6L70.3,23.6z
	 M73.9,23.3c0.5,0.5,0.8,1.2,0.8,2c0,1.1-0.7,2.1-1.7,2.5c-1,0.4-2.2,0.2-3-0.6c-0.8-0.8-1-2-0.6-3c0.4-1,1.4-1.7,2.5-1.7
	C72.7,22.5,73.4,22.8,73.9,23.3L73.9,23.3L73.9,23.3z M21.9,26h-2.5c-0.1,0-0.2,0-0.2,0.1c-0.1,0.1-0.1,0.1-0.1,0.2v4
	c0,0.1,0,0.2,0.1,0.2c0.1,0.1,0.1,0.1,0.2,0.1h2.5c1.3,0,2.1-0.9,2.1-2.3v-0.2C24,26.9,23.2,26,21.9,26L21.9,26L21.9,26z M38.2,30.6
	c-0.1,0-0.1,0-0.2,0.1l-1.6,3.8c0,0.1,0,0.1,0,0.2c0,0,0.1,0.1,0.2,0.1h3.2c0.1,0,0.1,0,0.2-0.1c0-0.1,0-0.1,0-0.2l-1.6-3.8
	C38.3,30.6,38.3,30.6,38.2,30.6L38.2,30.6L38.2,30.6z M38.5,22.5c0.2,0,0.4,0.1,0.5,0.3l7,16.5c0,0.1,0,0.2,0,0.4
	c-0.1,0.1-0.2,0.2-0.3,0.2h-3.2c-0.2,0-0.4-0.1-0.5-0.3l-0.6-1.4c-0.1-0.2-0.3-0.4-0.5-0.4h-5.2c-0.2,0-0.4,0.1-0.5,0.4l-0.6,1.4
	c-0.1,0.2-0.3,0.4-0.5,0.3h-3.2c-0.1,0-0.2-0.1-0.3-0.2c-0.1-0.1-0.1-0.2,0-0.3l7-16.5c0.1-0.2,0.3-0.3,0.5-0.3H38.5L38.5,22.5z
	 M12.8,22.5c0.2,0,0.4,0.2,0.4,0.4v2.7c0,0.2-0.2,0.4-0.4,0.4H8.8c-0.1,0-0.1,0-0.2,0.1c-0.1,0.1-0.1,0.1-0.1,0.2v13.1
	c0,0.1-0.1,0.2-0.1,0.3c-0.1,0.1-0.2,0.1-0.3,0.1H5.1c-0.1,0-0.2,0-0.3-0.1c-0.1-0.1-0.1-0.2-0.1-0.3V26.3c0-0.2-0.1-0.3-0.3-0.3
	H0.4c-0.1,0-0.2,0-0.3-0.1S0,25.7,0,25.6v-2.7c0-0.1,0-0.2,0.1-0.3s0.2-0.1,0.3-0.1L12.8,22.5L12.8,22.5z M54.1,22.5
	c0.2,0,0.3,0,0.4,0.1l9,9c0,0.1,0.1,0.1,0.2,0.1c0.1,0,0.1-0.1,0.1-0.2v-8.6c0-0.1,0-0.2,0.1-0.3s0.2-0.1,0.3-0.1h3.1
	c0.2,0,0.4,0.2,0.5,0.4v16.5c0,0.2-0.2,0.4-0.5,0.4h-0.4c-0.2,0-0.3-0.1-0.5-0.2l-8.9-8.9c0-0.1-0.1-0.1-0.2-0.1
	c-0.1,0-0.1,0.1-0.1,0.2v8.6c0,0.1,0,0.2-0.1,0.3c-0.1,0.1-0.2,0.1-0.3,0.1h-3.1c-0.2,0-0.4-0.2-0.5-0.4V22.9c0-0.2,0.2-0.4,0.5-0.4
	H54.1L54.1,22.5z M51,22.5c0.2,0,0.4,0.2,0.4,0.4v16.5c0,0.2-0.2,0.4-0.4,0.4h-3.1c-0.2,0-0.4-0.2-0.4-0.4V22.9
	c0-0.2,0.2-0.4,0.4-0.4H51z M23.2,22.5c2.8,0,5.1,2.5,5.1,5.5v0.2c0,2.2-1.2,4.1-3.2,5c-0.1,0-0.1,0.1-0.2,0.1c0,0.1,0,0.2,0,0.2
	c0.5,1.7,1.8,2.8,3.5,3c0.2,0,0.4,0.2,0.4,0.4v2.6c0,0.2-0.2,0.4-0.4,0.4c-3.7,0-6.6-2.4-7.3-6.1c0-0.2-0.2-0.3-0.3-0.3h-1.4
	c-0.1,0-0.1,0-0.2,0.1c-0.1,0-0.1,0.1-0.1,0.2v5.5c0,0.1,0,0.2-0.1,0.3c-0.1,0.1-0.2,0.1-0.3,0.1h-3.1c-0.1,0-0.2,0-0.3-0.1
	c-0.1-0.1-0.1-0.2-0.1-0.3V22.9c0-0.2,0.2-0.4,0.4-0.4H23.2L23.2,22.5z"/>
</svg>
