<?xml version="1.0" encoding="UTF-8"?>
<svg xmlns="http://www.w3.org/2000/svg" xmlns:xlink="http://www.w3.org/1999/xlink" width="1116px" height="300px" viewBox="0 0 1116 300" version="1.1">
  <title>Asset 1</title>
  <g id="Page-1" stroke="none" stroke-width="1" fill="none" fill-rule="evenodd">
    <g id="Asset-1" transform="translate(0.39, 0.28)" fill="#000000" fill-rule="nonzero">
      <g id="Group">
        <path d="M149.98,6.39 C150.13,4.49 150.3,2.37 150.49,0 L232.4,0 C233.55,6.6 233.53,6.55 227.53,8.05 C214.69,11.26 205.12,18.59 199.13,30.54 C169.89,88.89 140.59,147.21 111.32,205.54 C99.82,228.46 88.33,251.38 76.84,274.3 C76.34,275.29 75.91,276.32 75.09,278.11 C77.53,278.11 79.29,278.11 81.05,278.11 C137.37,278.11 193.7,278.13 250.02,278.1 C270.4,278.1 284.76,267.39 290.82,247.82 C292.86,241.24 294.85,234.64 297.57,228.2 L297.57,299.34 L2.84217094e-14,299.34 L2.84217094e-14,292.2 C1.65,291.72 3.51,291.19 5.37,290.62 C26.29,284.2 42.29,272 51.77,251.8 C56.72,241.25 62.15,230.93 67.51,220.58 C68.78,218.12 68.89,216.36 67.28,213.83 C35.59,164.1 43.56,102.3 87.09,62.44 C106.79,44.4 130.39,34.7 157.07,32.87 C160.52,32.63 162.61,31.72 163.81,28.41 C164.71,25.92 166.03,23.56 167.36,21.26 C169.73,17.16 168.38,13.97 164.6,12.12 C160.16,9.95 155.38,8.47 149.98,6.4 L149.98,6.39 Z M78.92,197.64 C103.46,148.69 127.55,100.63 152.13,51.59 C114.69,58.54 88.39,78.24 74.09,112.27 C62.08,140.85 64.24,169.29 78.92,197.63 L78.92,197.64 Z" id="Shape"></path>
        <path d="M255.59,192.7 L255.59,260.08 C253.67,257.2 252.28,255.15 250.92,253.08 C244.92,243.95 238.35,242.34 228.97,248.18 C217.86,255.11 206.13,260.51 193.37,263.52 C163.59,270.56 135.2,266.85 108.29,252.22 C107.44,251.76 106.64,251.19 105.44,250.44 C108.18,245.02 110.85,239.77 113.7,234.14 C139.31,248.68 165.95,252.49 193.89,244.16 C221.7,235.87 241.22,217.48 255.59,192.7 Z" id="Path"></path>
        <polygon id="Path" points="608.25 76.7 666.63 76.7 666.63 87.36 620.11 87.36 620.11 101.95 665.28 101.95 665.28 112.86 620.25 112.86 620.25 128.18 667.25 128.18 667.25 138.96 608.26 138.96 608.26 76.7"></polygon>
        <polygon id="Path" points="1057.52 163.18 1114.64 163.18 1114.64 173.3 1069.1 173.3 1069.1 187.1 1113.34 187.1 1113.34 197.33 1069.22 197.33 1069.22 211.56 1115.21 211.56 1115.21 221.73 1057.52 221.73 1057.52 163.18"></polygon>
        <polygon id="Path" points="751.35 221.84 693.69 221.84 693.69 163.21 751 163.21 751 173.18 705.3 173.18 705.3 187.16 749.65 187.16 749.65 197.41 705.33 197.41 705.33 211.7 751.35 211.7 751.35 221.84"></polygon>
        <path d="M493.74,223.53 C488.57,222.66 483.03,222.26 477.82,220.74 C464,216.71 456.97,206.69 456.999904,192.02 C457.02,178.05 464.04,168.2 477.53,164.07 C488.8,160.62 500.29,160.74 511.51,164.28 C525.46,168.68 531.59,178.45 530.94,194.24 C530.36,208.56 523.04,217.94 509.41,221.21 C504.43,222.4 499.24,222.74 493.75,223.53 L493.74,223.53 Z M494,212.7 C494.03,212.92 494.05,213.14 494.08,213.36 C498.16,212.66 502.37,212.38 506.3,211.17 C515.13,208.44 518.99,202.2 518.85,191.94 C518.71,181.92 514.82,176.26 505.83,173.6 C497.98,171.28 490.02,171.26 482.18,173.68 C476.52,175.43 472.18,178.7 470.32,184.77 C465.76,199.68 473.48,211.33 489,212.68 C490.65,212.82 492.33,212.7 493.99,212.7 L494,212.7 Z" id="Shape"></path>
        <path d="M828.99,199.87 L840.95,199.87 C840.17,207.84 836.7,214.14 829.96,217.51 C813.75,225.61 797.01,225.52 780.99,217.28 C770.67,211.97 768.14,201.8 768.47,190.82 C768.78,180.17 772.78,171.45 782.65,166.8 C797.43,159.83 812.7,159.8 827.6,166.42 C835.33,169.86 839.85,176.32 840.97,185.73 C837.31,185.73 834.04,185.9 830.81,185.63 C829.83,185.55 828.47,184.41 828.1,183.45 C826.2,178.46 822.33,175.71 817.57,174.29 C809.07,171.77 800.47,171.66 792.04,174.69 C784.64,177.35 781.09,182.74 780.77,191.23 C780.47,199.33 782.68,206.21 790.7,209.69 C800.12,213.77 809.82,213.74 819.47,210.49 C824.54,208.79 827.6,204.96 828.99,199.86 L828.99,199.87 Z" id="Path"></path>
        <path d="M441.83,185.47 C437.72,185.47 433.95,185.47 430.17,185.47 C424.43,174.33 413.93,170.21 398.62,173.09 C384.58,175.73 378.15,186.71 382.82,200.24 C384.42,204.89 387.61,208.19 392.22,210 C400.91,213.42 409.78,213.55 418.69,211.09 C423.56,209.75 427.27,206.91 429.27,201.99 C429.69,200.95 431.21,199.83 432.33,199.71 C435.28,199.39 438.28,199.6 441.83,199.6 C441.16,208.04 437.49,214.49 430.4,217.83 C414.28,225.45 397.49,225.84 381.88,217.17 C363.85,207.15 364.84,176.38 383.31,166.99 C398.04,159.51 413.62,159.69 428.68,166.47 C436.38,169.94 440.93,176.39 441.82,185.45 L441.83,185.47 Z" id="Path"></path>
        <path d="M436.98,76.68 L448.81,76.68 C448.9,78.19 449.07,79.62 449.07,81.06 C449.09,92.06 449,103.05 449.1,114.05 C449.17,122.04 452.13,126.71 459.88,128.01 C466.43,129.11 473.47,129.1 480.02,127.97 C487.63,126.66 490.67,121.68 490.69,113.94 C490.72,103.44 490.69,92.95 490.69,82.45 C490.69,80.66 490.69,78.88 490.69,76.78 L502.84,76.78 C502.84,78.35 502.84,79.93 502.84,81.51 C502.84,92.84 502.88,104.17 502.83,115.5 C502.78,127.14 497.66,134.38 486.56,137.8 C475.46,141.22 464.19,141.29 453.11,137.74 C443.71,134.73 437.49,128.35 437.1,118.23 C436.58,104.62 436.97,90.97 436.97,76.71 L436.98,76.68 Z" id="Path"></path>
        <path d="M562.16,106.93 C571.63,117.63 580.85,128.03 590.84,139.32 C585.77,139.32 581.82,139.59 577.95,139.18 C576.42,139.02 574.8,137.57 573.65,136.32 C567.39,129.47 561.26,122.5 554.78,115.22 C549.34,121.13 543.59,126.32 539.17,132.46 C534.08,139.53 527.71,140.45 519.34,138.83 C528.98,128.35 538.35,118.16 548.12,107.52 C539.23,97.46 530.4,87.45 520.74,76.51 C525.91,76.51 529.99,76.28 534.02,76.64 C535.39,76.76 536.83,78.21 537.89,79.37 C543.7,85.76 549.41,92.26 555.55,99.16 C560.78,93.52 566.4,88.49 570.73,82.53 C575.74,75.64 582.08,75.87 589.8,76.87 C580.36,87.13 571.31,96.97 562.15,106.92 L562.16,106.93 Z" id="Path"></path>
        <path d="M210.43,41.27 C216.18,44.37 221.53,47.31 226.94,50.15 C229.58,51.54 232.19,53.1 235,54 C240.66,55.82 245.49,54.1 249.09,49.28 C251.22,46.42 253.14,43.4 255.7,39.66 L255.7,106.82 C242.87,85.15 226.01,67.97 201.99,58.2 C204.84,52.49 207.48,47.19 210.43,41.27 L210.43,41.27 Z" id="Path"></path>
        <path d="M1040.78,162.93 C1032.9,177.85 1025.54,191.81 1018.17,205.76 C1016.46,209 1014.78,212.25 1012.95,215.42 C1011.65,217.67 1010.44,221.23 1008.6,221.66 C1004.5,222.62 1000.02,222.11 995.71,221.88 C994.92,221.84 993.99,220.44 993.48,219.48 C983.93,201.57 974.43,183.63 964.95,165.68 C964.59,165 964.44,164.2 964,162.9 C967.77,162.9 971.11,162.52 974.3,163.06 C975.85,163.32 977.6,165.03 978.42,166.55 C986.34,181.18 994.08,195.9 1002.19,211.21 C1003.18,209.67 1004,208.56 1004.65,207.37 C1011.55,194.64 1018.7,182.04 1025.17,169.1 C1027.62,164.2 1030.49,161.92 1035.88,162.9 C1037.14,163.13 1038.47,162.93 1040.78,162.93 L1040.78,162.93 Z" id="Path"></path>
        <polygon id="Path" points="891.21 221.8 878.9 221.8 878.9 173.27 852.15 173.27 852.15 163.28 918.13 163.28 918.13 173.04 891.21 173.04 891.21 221.8"></polygon>
        <polygon id="Path" points="369.81 76.7 381.38 76.7 381.38 128.19 423.29 128.19 423.29 138.99 369.81 138.99 369.81 76.71"></polygon>
        <polygon id="Path" points="563.05 211.82 604.07 211.82 604.07 221.77 551.49 221.77 551.49 163.24 563.05 163.24 563.05 211.82"></polygon>
        <polygon id="Path" points="674.5 211.62 674.5 221.75 621.86 221.75 621.86 163.22 633.32 163.22 633.32 211.62"></polygon>
        <polygon id="Path" points="935.31 163.13 946.89 163.13 946.89 221.71 935.31 221.71"></polygon>
      </g>
    </g>
  </g>
</svg>
