<?xml version="1.0" encoding="utf-8"?>
<!-- Generator: Adobe Illustrator 27.8.0, SVG Export Plug-In . SVG Version: 6.00 Build 0)  -->
<svg version="1.1" id="Layer_1" xmlns="http://www.w3.org/2000/svg" xmlns:xlink="http://www.w3.org/1999/xlink" x="0px" y="0px"
	 viewBox="0 0 485.7 29.5" style="enable-background:new 0 0 485.7 29.5;" xml:space="preserve">
<path d="M15.8,13.9h3.4c7.2,0,11.1-1.5,11.1-6.5c0-3.6-4-5.9-10.5-5.9c-2.1,0-3.1,0.2-4,0.2V13.9L15.8,13.9z M6.5,4.3
	c0-3.1-2.9-3.1-5.2-3.1H0V0.1c2.3,0,6.7,0.2,11.1,0.2s7.8-0.2,11.6-0.2c9,0,17.2,1.3,17.2,7.2c0,3.6-4.4,5.9-9.9,7.2l12.2,10.5
	c2.1,1.7,3.4,2.3,7.1,2.5v1.1c-2.3,0-4.6-0.2-7.1-0.2c-2.3,0-4.6,0.2-6.7,0.2c-5.5-4.2-10.3-8.6-14.9-13.4h-4.8v8.8
	c0,3.2,2.7,3.2,5.9,3.2h1.3v1.1c-4,0-8.2-0.2-12.4-0.2c-3.4,0-6.9,0.2-10.5,0.2v-1.1h1.3c2.7,0,5.2-0.8,5.2-2.3V4.3 M64.1,27.6h0.8
	c1.9,0,4-0.2,4-1.7V9.7c0-1.5-2.1-1.7-4-1.7h-0.8V7c2.1,0,5.3,0.2,8,0.2S78,7,80.5,7v1h-0.8c-1.9,0-4,0.2-4,1.7v16.2
	c0,1.5,2.1,1.7,4,1.7h0.8v1c-2.7,0-5.7-0.2-8.6-0.2c-2.7,0-5.7,0.2-8,0.2v-1 M134.9,13.5c-1.5-3.1-4-5.5-12-5.5
	c-8.8,0-13.5,4-13.5,9.3c0,5.2,4.6,10.3,14.7,10.3c5.7,0,9.5-2.1,11.1-5.2l1.5,0.2c-0.8,1.7-1.1,3.2-1.3,5
	c-3.1,0.8-7.4,1.3-12.4,1.3c-12.2,0-21.2-3.8-21.2-11.4c0-6.9,9.7-10.9,20.8-10.9c6.3,0,8.4,1.1,13.4,1.5c0,1.7,0,3.4,0.4,5.2
	L134.9,13.5 M167.3,25.9c0,1.7,2.3,1.7,4.2,1.7h1v1c-2.3,0-5.9-0.2-8.8-0.2c-2.7,0-5.9,0.2-8.2,0.2v-1h0.8c1.9,0,4-0.2,4-1.7V9.7
	c0-1.5-2.1-1.7-4-1.7h-0.6V7c2.1,0,5.3,0.2,8.2,0.2c2.9,0,6.3-0.2,8.8-0.2v1h-1c-1.9,0-4.2,0-4.2,1.7v6.7h19.7V9.7
	c0-1.7-2.3-1.7-4.2-1.7h-1V7c2.3,0,5.7,0.2,8.8,0.2c2.7,0,5.9-0.2,8.2-0.2v1h-1.3c-1.9,0-4,0.2-4,1.7v16.2c0,1.5,2.1,1.7,4,1.7h0.8
	v1c-2.1,0-5.3-0.2-8.2-0.2c-2.9,0-6.3,0.2-8.8,0.2v-1h1c1.9,0,4.2,0,4.2-1.7v-7.6h-19.7v7.6 M217.9,27.6h0.8c1.9,0,4-0.2,4-1.7V9.7
	c0-1.5-2.1-1.7-4-1.7h-0.8V7c3.2,0,9,0.2,13.4,0.2c4.4,0,10.1-0.2,13.7-0.2c-0.2,1.3,0,3.4,0.2,4.8l-1.5,0.2c-0.2-1.9-1-3.6-6.5-3.6
	h-7.4v8h6.5c3.2,0,4-1,4.2-2.7h1.5c-0.2,1.1-0.2,2.5-0.2,3.6s0,2.3,0.2,3.4l-1.5,0.2c-0.4-1.9-0.6-3.1-4.2-3.1h-6.5v7.2
	c0,1.9,3.1,1.9,6.5,1.9c6.5,0,9.3-0.2,10.9-3.8l1.5,0.2c-0.8,1.7-1.3,3.2-1.9,5c-3.4,0-9.7-0.2-14.5-0.2c-4.8,0-11.3,0.2-14.3,0.2
	V27.6 M292.3,23.2l12.8-16c1.5,0,3.6,0.2,5.5,0.2s3.8-0.2,5.7-0.2v1h-0.6c-1.5,0-5,0-5,1.3c0,0.8,0.2,1.7,0.2,2.5l2.1,14.1
	c0.2,1.5,1.5,1.7,4.8,1.7v1c-2.5,0-5.2-0.2-7.8-0.2c-3.1,0-5.9,0-9,0.2v-1c2.9,0,4.6,0,4.6-1.5c0-0.4,0-0.8,0-1.5l-1.5-13h-0.2
	l-13.7,17.4h-1.3l-13-17l0,0L274,25.7c0,1,0.4,1.5,1.1,1.7s1.9,0.4,3.4,0.4h0.6v1c-2.5,0-5-0.2-7.2-0.2c-2.1,0-4.2,0-6.3,0.2v-1h0.8
	c4.2,0,4.4-1.1,5-3.4l1.5-8.6c0.4-2.1,0.6-4.2,0.6-5.3c0-1.7-2.3-2.3-4.8-2.3h-0.4v-1c2.3,0,4.4,0.2,6.5,0.2c1.5,0,3.2-0.2,4.8-0.2
	L292.3,23.2 M354.5,27.6c10.5,0,12.2-5.3,12.2-9.7c0-4.6-4.2-9.9-13.2-9.9c-9.3,0-12.2,4.8-12.2,9C341.3,22.5,345.7,27.6,354.5,27.6
	z M353.7,6.6c11.4,0,20.6,4,20.6,10.7c0,7.1-9,11.8-20.4,11.8c-11.4,0-20.2-4.4-20.2-11.1C333.9,11.6,342.4,6.6,353.7,6.6
	 M425.1,22.5L425.1,22.5l0.2-11.6c0-2.5-3.1-2.9-4.8-2.9h-1.1V7c2.5,0,5,0.2,7.6,0.2c2.3,0,4.4-0.2,6.7-0.2v1h-0.8
	c-2.3,0-4.8,0.2-4.8,3.8v13.9c0,1.1,0,2.1,0.4,3.1h-2.1L398.7,11v12.6c0,2.7,1,3.6,5.2,3.6h1v1c-2.3,0-4.6-0.2-6.9-0.2
	c-2.5,0-5,0.2-7.2,0.2v-1h0.8c3.6,0,4.8-1.5,4.8-3.8v-13c0-1.7-2.5-2.9-5-2.9h-0.8v-1c2.1,0,4.2,0.2,6.1,0.2c1.5,0,3.2-0.2,4.8-0.2
	L425.1,22.5 M454.6,8.7c-4,0-4.2,0.6-5,2.9h-1.5c0.2-1,0.6-1.7,0.6-2.7c0.2-1,0.4-1.7,0.4-2.7h1.3c0.4,1,1.7,1,3.2,1h27.9
	c1.5,0,2.9,0,2.9-1l1.3,0.2c-0.2,0.8-0.4,1.7-0.6,2.5c-0.2,0.8-0.2,1.7-0.2,2.5l-1.5,0.4c-0.2-1.1-0.4-2.9-4-2.9h-8.8v16.4
	c0,2.3,1.9,2.7,4.4,2.7h1v1c-2.1,0-5.9-0.2-8.8-0.2c-3.2,0-7.1,0.2-9.2,0.2v-1h1c3.1,0,4.4-0.2,4.4-2.7V8.9h-8.8 M0.2,28
	c0-0.2,0.6-0.4,1.7-0.6c1-0.2,2.3-0.4,2.9-0.4c1.9-0.6,1.9-0.4,1.9-12.8V3.2L6.1,2.4C5.3,1.7,3.6,1.1,1.7,1.1c-1,0-1.3-0.2-1.3-0.4
	c0-0.4,1.5-0.4,15.1-0.4c12.8,0.2,15.5,0.2,17,0.6C35.1,1.5,38,3,38.9,4.3c0.8,1,1,1.3,1,2.7s-0.2,1.9-0.8,2.7
	c-1,1.5-3.4,2.9-6.1,3.8c-1.3,0.4-2.5,0.8-2.7,0.8c-0.4,0.2,12.2,11.1,13.9,12c0.8,0.4,2.1,0.8,3.1,1c1.3,0.2,1.7,0.4,1.7,0.8
	c0,0.4-0.4,0.6-6.7,0.6h-6.9L33,26.5c-2.7-2.1-9.2-8-11.1-9.9l-1.1-1.1h-2.5h-2.5v5.2c0,5.2,0.2,5.2,0.8,5.9
	c0.8,0.8,2.9,1.3,5.2,1.3c0.8,0,1.1,0.2,1.1,0.4c0,0.4-1.5,0.4-11.3,0.4C2.1,28.4,0.2,28.4,0.2,28L0.2,28z M24.2,13.5
	c2.5-0.4,4.2-1.3,5.2-2.9c0.8-1,0.8-1.5,0.8-3.1c0-2.3-0.8-3.6-2.9-4.8c-2.5-1.3-6.9-1.9-10.5-1.5l-1.3,0.2v6.1v6.1h3.4
	C21,13.9,23.3,13.7,24.2,13.5L24.2,13.5z M0.2,28c0-0.2,0.8-0.6,2.3-0.8c3.2-0.4,4-1,4.2-2.5c0.2-0.8,0.2-5.9,0-11.4
	c0-8.4-0.2-10.5-0.6-10.9c-0.8-0.8-1.9-1.3-4-1.5C0.6,0.7,0,0.5,0,0.3C0-0.2,29.4,0,32.1,0.7c4.6,1.1,7.1,3.1,7.4,5.5
	c0.6,3.2-1.9,5.5-7.2,7.2l-2.5,0.8l0.8,0.8c1.5,1.5,8.6,7.4,10.9,9.3s4,2.7,6.3,2.9c0.6,0,1,0.2,1,0.6s-0.4,0.6-6.9,0.6h-6.9
	l-2.9-2.3c-2.7-2.1-10.1-9-11.3-10.3c-0.6-0.6-0.8-0.6-3.1-0.6h-2.5l0.2,5c0,3.4,0.2,5.2,0.6,5.5c0.6,1,1.7,1.3,4.4,1.7
	c1.5,0.2,2.3,0.4,2.3,0.6c0,0.4-1.9,0.4-11.3,0.4C2.3,28.4,0.2,28.4,0.2,28z M23.8,13.5c2.3-0.4,4.6-1.3,5.3-2.5
	c1-1.3,1.3-3.2,1-4.8c-0.4-1.5-2.1-3.2-4.2-4s-5.7-1.1-8.2-1l-2.3,0.2v6.1v6.1h3.2C20.6,13.9,22.9,13.7,23.8,13.5L23.8,13.5z
	 M64.1,28.2c0-0.2,0.8-0.4,1.7-0.4c1.3-0.2,1.9-0.4,2.5-1c0.6-0.8,0.6-0.8,0.6-9s0-8.2-0.6-9c-0.6-0.6-1-0.8-2.5-1
	c-4-0.4-1.3-0.8,6.3-0.8c5.2,0,8.2,0.2,8.2,0.2c0,0.2-0.4,0.4-1,0.4c-1.5,0-3.2,0.6-3.6,1c-0.2,0.4-0.4,2.5-0.4,9s0,8.6,0.4,9
	c0.4,0.6,2.1,1,3.6,1c0.6,0,1,0.2,1,0.4s-2.9,0.2-8.2,0.2C67.9,28.4,64.1,28.4,64.1,28.2z M117.9,28.8c-7.6-0.8-13.2-3.4-15.1-7.2
	c-3.6-7.2,3.1-13.4,16-14.5c3.8-0.4,7.1-0.2,12.2,0.6c1.9,0.4,3.8,0.6,4.2,0.6c0.6,0,0.8,0.2,0.8,1.1c0,0.8,0.2,1.9,0.2,2.5
	c0.2,1.3,0.2,1.3-0.6,1.3c-0.4,0-0.8-0.2-0.8-0.2c0-0.6-2.5-3.1-3.6-3.4c-2.7-1.3-7.1-1.9-11.3-1.3c-5,0.6-8.2,2.5-9.7,5.7
	c-0.8,1.5-1,2.1-0.8,3.8c0.4,5.9,5,9.3,13.2,10.1c5.2,0.4,10.1-1.3,11.8-4c0.4-0.6,0.8-1,1.3-1s0.8,0,0.4,1.1
	c-0.2,0.6-0.4,1.7-0.6,2.3c-0.2,0.8-0.4,1.3-0.8,1.5C133,28.6,122.9,29.1,117.9,28.8z M155.9,28.2c0-0.2,0.8-0.4,1.7-0.4
	c3.1-0.4,2.9,0.2,2.9-9.9s0.2-9.5-2.9-9.9c-3.8-0.4-1.1-0.8,6.7-0.8c7.8,0,10.5,0.2,6.3,0.6c-3.2,0.4-3.6,0.8-3.4,5.7v2.9h9.9h9.9
	v-3.4c0-3.1,0-3.6-0.4-4c-0.6-0.8-2.1-1.1-3.8-1.1c-0.6,0-1.1-0.2-1.1-0.4s3.1-0.2,8.4-0.2c5.3,0,8.4,0.2,8.4,0.2
	c0,0.2-0.4,0.4-1,0.4c-1.5,0-3.2,0.6-3.6,1c-0.2,0.4-0.4,2.5-0.4,9s0,8.6,0.4,9c0.4,0.6,2.1,1,3.6,1c0.6,0,1,0.2,1,0.4
	s-3.1,0.2-8.4,0.2c-5.3,0-8.4-0.2-8.4-0.2c0-0.2,0.6-0.4,1.1-0.4c1.7,0,3.2-0.6,3.8-1.1c0.4-0.6,0.6-1.1,0.6-4.6v-4h-9.9h-9.9v3.2
	c-0.2,5.3,0.2,5.9,3.4,6.1c4.2,0.4,1.5,0.6-6.3,0.6C159.7,28.4,155.9,28.4,155.9,28.2L155.9,28.2z M217.9,28.2
	c0-0.2,0.8-0.4,1.7-0.4c1.9-0.2,2.7-0.6,3.1-1.5c0-0.4,0.2-4.2,0.2-8.6c0-8,0-8-0.6-8.8c-0.6-0.6-1-0.8-2.5-1
	c-4.6-0.4-0.8-0.8,11.6-0.8h13.4v1c0,0.6,0,1.5,0.2,2.3l0.2,1.3h-0.8c-0.6,0-0.8-0.2-1-0.8c-0.2-0.8-1.5-1.9-2.9-2.3
	c-0.6-0.2-3.4-0.4-6.1-0.4h-5.2v4.2v4.2l4.4-0.2c4.8-0.2,5.5-0.4,6.1-1.9c0.2-0.6,0.6-1,1-1c0.8,0,0.8,0,0.6,3.4
	c0,3.4,0,3.4-0.8,3.6c-0.6,0-0.8-0.2-1-0.8c-0.4-1.7-1.1-2.1-6.1-2.1l-4.4-0.2v4c0,3.8,0,4,0.6,4.6c1,0.8,2.5,1,7.8,0.8
	c5.5-0.2,6.7-0.4,8.4-2.5c0.8-1,1.1-1.1,1.5-1.1c0.2,0.2,0.4,0.4,0.4,0.6c0,0.2-0.4,1.1-0.8,2.3l-0.6,1.9h-14.3
	C224.4,28.4,217.9,28.4,217.9,28.2z M282.5,20.4c-3.6-4.8-6.7-8.6-6.7-8.4c0,0-0.6,3.2-1.1,7.1c-1,6.7-1,6.9-0.4,7.6
	c0.6,0.8,1.7,1.1,3.8,1.1c0.6,0,1.1,0.2,1.1,0.4c0,0.2-2.5,0.2-6.9,0.2c-4,0-6.9-0.2-6.9-0.2c0-0.2,0.8-0.4,1.7-0.4
	c2.1-0.2,3.1-0.6,3.4-1.3c0.6-0.8,2.5-11.4,2.9-14.3c0.2-2.1,0.2-2.3-0.6-2.9c-0.6-0.4-1.3-0.8-2.7-1c-1.1-0.2-2.1-0.4-2.1-0.6
	c0-0.2,2.5-0.2,5.7-0.2h5.7l6.3,8c3.4,4.4,6.3,8,6.3,8s3.1-3.6,6.5-8l6.3-8h5.7c5.5,0,7.4,0.4,3.8,0.8c-2.3,0.2-3.6,0.6-3.8,1.3
	c0,0.2,0.4,4.2,1.1,9c1.3,9.5,1.3,9.3,4.2,9.5c3.8,0.4,1.3,0.8-6.5,0.8s-10.3-0.2-6.5-0.8c1-0.2,1.9-0.4,2.3-0.8l0.6-0.6l-0.8-7.2
	c-0.4-4-1-7.2-1-7.4c0-0.2-3.2,3.6-7.1,8.6c-5,6.3-7.1,8.8-7.4,8.8C289.2,28.9,287.5,26.9,282.5,20.4L282.5,20.4z M349.7,28.8
	c-3.4-0.4-6.7-1.1-9.3-2.5c-3.1-1.5-4.4-2.9-5.5-5c-4.2-8.2,7.6-15.6,22.7-14.3c10.7,1,17.2,5.3,16.8,10.9
	c-0.6,5.7-6.9,9.9-16.4,10.9C354.5,28.9,352.9,28.9,349.7,28.8L349.7,28.8z M359.6,27.2c4.8-1.1,7.4-4.6,7.1-9.5
	c-0.2-2.5-1-4.2-2.7-5.9c-2.9-3.1-7.8-4.4-13.2-3.6c-3.1,0.4-5.3,1.3-6.9,2.7c-2.1,1.9-2.5,3.1-2.5,6.3c0,2.5,0,2.9,0.8,4.4
	c0.4,1,1.5,2.3,2.1,2.9c2.1,1.9,4,2.7,8,3.4C353.5,27.8,358.1,27.6,359.6,27.2L359.6,27.2z M413,20.6c-7.2-4.6-13.5-8.6-13.9-8.8
	l-0.6-0.4v7.2c0,7.2,0,7.2,0.6,8c0.6,0.6,1,0.8,3.1,1.1c1.3,0.2,2.3,0.4,2.3,0.6c0,0.2-3.2,0.2-7.1,0.2c-6.9,0-9.2-0.2-5.5-0.8
	c2.3-0.2,3.4-1,3.8-2.3c0.4-1.5,0.4-14.9,0-15.6c-0.4-0.8-2.3-1.5-4-1.9c-2.9-0.4-1.1-0.8,4.2-0.8h5.5l11.6,7.4
	c6.5,4.2,11.8,7.6,12,7.8c0.2,0.2,0.4-1.1,0.4-6.1v-6.3l-0.8-1c-0.6-0.8-1.1-1-2.9-1.1c-1.1-0.2-2.1-0.4-2.1-0.6s3.1-0.2,6.9-0.2
	c6.7,0,8.8,0.2,5.2,0.8c-1.3,0.2-1.9,0.4-2.7,1l-1,0.8v9.5v9.5h-0.8C426.6,28.9,423,26.9,413,20.6L413,20.6z M457.9,28.2
	c0-0.2,1-0.4,1.9-0.4c1.1,0,2.3-0.4,2.5-0.4c1-0.6,1.1-2.1,1.1-10.7v-8h-5.9c-6.5,0-7.1,0.2-7.8,1.9c-0.2,0.6-0.4,0.8-1,0.8
	c-0.8,0-0.8,0.2-0.2-2.7c0.6-2.5,0.8-2.7,2.3-1.7c0.8,0.4,2.9,0.4,16.6,0.4c12,0,15.8-0.2,16-0.4c0.2-0.2,0.6-0.4,1-0.4
	c0.6,0,0.6,0,0.4,1c-0.2,0.6-0.2,1.5-0.2,2.1c0,1.3-0.2,1.7-1,1.9c-0.4,0-0.6-0.2-0.8-0.8c-0.2-0.4-0.6-1.1-1.1-1.5
	c-0.8-0.6-1.3-0.6-6.3-0.8l-5.3-0.2v8.8c0,7.2,0,9,0.4,9.3c0.4,0.6,2.3,1.3,4,1.3c0.6,0,1,0.2,1,0.2c0,0.2-3.1,0.2-8.8,0.2
	C461.9,28.4,457.9,28.4,457.9,28.2L457.9,28.2z"/>
</svg>
