<?xml version="1.0" encoding="UTF-8"?>
<svg xmlns="http://www.w3.org/2000/svg" xmlns:xlink="http://www.w3.org/1999/xlink" width="77.3400054px" height="77.3399897px" viewBox="0 0 77.3400054 77.3399897" version="1.1">
  <title>tga2</title>
  <g id="Page-1" stroke="none" stroke-width="1" fill="none" fill-rule="evenodd">
    <g id="tga2" fill="#000000" fill-rule="nonzero">
      <path d="M48.4000054,26.9299897 C46.4000054,29.2899897 45.6500054,33.4899897 45.6200054,33.6099897 C44.0714356,31.6104796 41.6685833,30.4609669 39.1400054,30.5099897 C36.9519459,30.4913456 34.8461056,31.3427091 33.2857857,32.8767736 C31.7254658,34.4108381 30.838492,36.5019289 30.8200054,38.6899897 L30.8200054,38.7699897 C30.8853431,43.3411978 34.5983801,47.0186608 39.1700054,47.0399897 C41.7351893,47.1152973 44.1705121,45.9126225 45.6700054,43.8299897 L39.1600054,43.8299897 L39.1600054,38.7699897 L54.3400054,38.7699897 C54.1900054,42.5699897 51.5200054,53.5699897 39.1400054,53.7499897 C34.6200054,53.8199897 24.1400054,50.3199897 24.1898271,38.7499897 C24.2700054,29.4699897 30.8200054,23.7499897 39.1300054,23.6499897 C42.5179259,23.5680022 45.8175655,24.7355122 48.4000054,26.9299897 Z M31.3400054,23.7399897 C28.1800054,24.4899897 25.1900054,28.2499897 24.2600054,30.5599897 L20.4700054,30.5599897 L20.4700054,52.9299897 L13.7400054,52.9299897 L13.7400054,30.5699897 L6.55000539,30.5699897 L6.55000539,23.7399897 L31.3400054,23.7399897 Z M59.3400054,23.5699897 C70.3400054,23.5699897 70.7500054,35.2799897 70.7700054,38.4999897 L70.7700054,52.8699897 L63.9800054,52.8699897 L63.9800054,43.8699897 L55.1000054,43.8699897 C55.6960147,42.1941915 56.0332174,40.4373659 56.1000054,38.6599897 L64.0400054,38.6599897 C64.0400054,38.6599897 64.9700054,29.7799897 59.4500054,29.7399897 C55.3000054,29.7399897 54.8300054,35.1999897 54.5400054,36.6399897 L47.1400054,36.6399897 C47.7200054,33.4699897 48.8300054,23.5699897 59.3400054,23.5699897 Z" id="b829211e-79a0-48b1-8d30-287a46ed273d"></path>
      <path d="M38.6400054,77.3399897 C17.2870672,77.3234242 -0.0110309723,60.002947 5.27793859e-06,38.6500052 C0.0110520941,17.2970635 17.3270537,-0.00551491608 38.6799976,1.3186063e-06 C60.0329415,0.00552019176 77.3400054,17.3170451 77.3400054,38.6699897 C77.3179349,60.0294059 59.9994323,77.3344833 38.6400054,77.3399897 Z M38.6400054,1.99998971 C18.3916371,2.01655506 1.98896954,18.4416013 2.00000527,38.6899733 C2.01105215,58.9383454 18.4316229,75.3454933 38.6799972,75.3399775 C58.9283715,75.3344588 75.3400054,58.9183648 75.3400054,38.6699897 C75.317936,18.415143 58.8948634,2.00549522 38.6400054,1.99998971 Z" id="Shape"></path>
    </g>
  </g>
</svg>
