<?xml version="1.0" encoding="utf-8"?>
<!-- Generator: Adobe Illustrator 27.8.0, SVG Export Plug-In . SVG Version: 6.00 Build 0)  -->
<svg version="1.1" id="Layer_1" xmlns="http://www.w3.org/2000/svg" xmlns:xlink="http://www.w3.org/1999/xlink" x="0px" y="0px"
	 viewBox="0 0 214 46" style="enable-background:new 0 0 214 46;" xml:space="preserve">
<path d="M47.5,7.6h-3v6.7c0,1.2,0.7,1.4,1.7,1.4c0.4,0,0.8-0.1,1.2-0.1v3.5c-0.9,0-1.8,0.1-2.6,0.1c-4.1,0-5.2-1.2-5.2-5.2V7.6h-2.4
	V4.5h2.4V0h4.8v4.4h3C47.5,4.4,47.5,7.6,47.5,7.6z M53.2,13c0.1,2,1.2,3.3,3.3,3.3c1.2,0,2.3-0.5,2.8-1.6h4.5
	c-0.9,3.4-4,4.9-7.3,4.9c-4.8,0-8.1-2.9-8.1-7.8c0-4.5,3.6-7.7,8-7.7c5.3,0,7.9,4,7.7,9L53.2,13L53.2,13L53.2,13z M59.2,10.3
	c-0.1-1.6-1.2-3-2.9-3s-2.8,1.2-3.1,3H59.2z M75.6,9.8c0-1.2-1.1-2.1-2.4-2.1c-2.7,0-3.1,2.3-3.1,4.3s0.8,3.9,2.9,3.9
	c1.7,0,2.5-1,2.8-2.5h4.7c-0.4,3.9-3.5,6.2-7.4,6.2c-4.4,0-7.7-3-7.7-7.6s3-8,7.7-8c3.7,0,6.9,1.9,7.3,5.8
	C80.4,9.8,75.6,9.8,75.6,9.8z M81.7,0h4.8v6.5h0.1C87.3,5,89.3,4,91,4c4.9,0,5.3,3.6,5.3,5.7v9.4h-4.8V12c0-2,0.2-4.1-2.4-4.1
	c-1.8,0-2.6,1.5-2.6,3.2v8h-4.8V0L81.7,0z M98.5,13.9h5.3v5.3h-5.3V13.9z M42.3,36.2c0,0.6,0.3,1.3,0.8,1.6s1.2,0.5,1.8,0.5
	c0.9,0,2.3-0.4,2.3-1.6s-1.5-1.4-2.4-1.6c-3-0.8-6.8-0.8-6.8-4.8c0-3.5,3.8-4.5,6.7-4.5c3.2,0,6.6,0.9,6.8,4.8H47
	c0-0.5-0.2-1-0.6-1.3c-0.5-0.3-1-0.4-1.5-0.4c-0.8,0-2.1,0.1-2.1,1.1c0,1.4,3.2,1.6,5.5,2.1c3,0.6,3.8,2.8,3.8,4
	c0,3.9-3.8,5.2-7.1,5.2c-3.5,0-7.1-1.2-7.2-5.3L42.3,36.2L42.3,36.2L42.3,36.2z M68.4,41.1h-4.7v-2h-0.1c-0.9,1.5-2.8,2.4-4.5,2.4
	c-4.2,0-5.5-2.4-5.5-6.3v-8.9h4.8v8.5c0,2,0.8,2.6,2.4,2.6c1,0,2.6-0.7,2.6-3.3v-7.9h4.8C68.4,26.3,68.4,41.1,68.4,41.1L68.4,41.1z
	 M70.8,26.4h4.6v1.7h0.1c0.9-1.4,2.4-2.2,4.1-2.1c4.6,0,6.6,4,6.6,8.1c0,3.8-2,7.5-6.2,7.5c-1.8,0-3.2-0.7-4.2-2h-0.1V46h-4.8
	C70.8,46,70.8,26.4,70.8,26.4L70.8,26.4z M75.4,33.5c0,2.6,0.7,4.2,2.9,4.2s2.9-2.2,2.9-4.2s-0.7-3.9-2.9-3.9
	C77.1,29.6,75.4,30.5,75.4,33.5L75.4,33.5z M92.1,34.9c0.1,2,1.2,3.3,3.3,3.3c1.2,0,2.3-0.5,2.8-1.6h4.5c-0.9,3.4-4,4.9-7.3,4.9
	c-4.8,0-8.1-2.9-8.1-7.8c0-4.5,3.6-7.7,7.9-7.7c5.3,0,7.9,4,7.7,9L92.1,34.9L92.1,34.9L92.1,34.9z M98,32.2c-0.1-1.6-1.2-3-2.9-3
	c-1.7,0-2.8,1.2-3.1,3H98z M104.3,26.4h4.7V29h0.1c0.7-1.9,2.4-2.9,4.4-2.9c0.4,0,0.8,0,1.1,0.1v4.4c-0.6-0.2-1.2-0.3-1.8-0.3
	c-2.4,0-3.6,1.6-3.6,3.5v7.3h-4.8L104.3,26.4L104.3,26.4L104.3,26.4z M116.2,26.4h4.6v1.7h0.1c0.9-1.4,2.4-2.2,4.1-2.1
	c4.6,0,6.6,4,6.6,8.1c0,3.8-2.1,7.5-6.2,7.5c-1.8,0-3.2-0.7-4.2-2H121V46h-4.8V26.4L116.2,26.4z M120.9,33.5c0,2.6,0.7,4.2,2.9,4.2
	s2.9-2.2,2.9-4.2s-0.7-3.9-2.9-3.9C122.5,29.6,120.9,30.5,120.9,33.5L120.9,33.5z M140.4,25.9c4.6,0,7.8,3.4,7.8,7.8
	s-3.2,7.8-7.8,7.8s-7.8-3.3-7.8-7.8S135.8,25.9,140.4,25.9L140.4,25.9z M140.4,37.8c2.2,0,2.9-2.2,2.9-4.1c0-1.9-0.7-4.1-2.9-4.1
	s-2.9,2.2-2.9,4.1C137.5,35.6,138.2,37.8,140.4,37.8L140.4,37.8z M166.9,41.1H162l-2.3-9.8h-0.1l-2.3,9.8h-4.9l-4.6-14.7h4.9
	l2.5,9.5h0.1l2.1-9.5h4.6l2.1,9.4h0.1l2.4-9.4h4.9L166.9,41.1z M175.9,34.9c0.1,2,1.2,3.3,3.3,3.3c1.2,0,2.3-0.5,2.8-1.6h4.5
	c-0.9,3.4-4,4.9-7.3,4.9c-4.8,0-8.1-2.9-8.1-7.8c0-4.5,3.6-7.7,7.9-7.7c5.3,0,7.9,4,7.7,9L175.9,34.9L175.9,34.9z M181.9,32.2
	c-0.1-1.6-1.2-3-2.9-3s-2.8,1.2-3.1,3H181.9z M188.5,26.4h4.7V29h0.1c0.7-1.9,2.4-2.9,4.4-2.9c0.4,0,0.8,0,1.1,0.1v4.4
	c-0.6-0.2-1.2-0.3-1.9-0.3c-2.4,0-3.6,1.6-3.6,3.5v7.3h-4.8V26.4L188.5,26.4L188.5,26.4z M204.3,36.2c0,0.6,0.3,1.3,0.8,1.6
	s1.1,0.5,1.8,0.5c0.9,0,2.3-0.4,2.3-1.6s-1.5-1.4-2.4-1.6c-3-0.8-6.8-0.8-6.8-4.8c0-3.5,3.8-4.5,6.7-4.5c3.2,0,6.6,0.9,6.8,4.8H209
	c0-0.5-0.2-1-0.6-1.3c-0.5-0.3-1-0.4-1.5-0.4c-0.8,0-2.1,0.1-2.1,1.1c0,1.4,3.2,1.6,5.4,2.1c3,0.6,3.8,2.8,3.8,4
	c0,3.9-3.8,5.2-7.1,5.2c-3.5,0-7.1-1.2-7.2-5.3L204.3,36.2L204.3,36.2L204.3,36.2z"/>
<g>
	<path d="M25.3,21.7L8.9,35.9c-0.3,0.3-0.7,0.4-1.1,0.4c-0.4,0-0.7-0.1-1.1-0.3c-0.3-0.2-0.6-0.5-0.7-0.9l-3.8,6.5
		c-1.1,1.9,1.3,3.9,3,2.5l26-22.3H25.3z"/>
</g>
<g>
	<path d="M26,2.1L0,24.4l5.8,0l16.6-14.2c0.7-0.6,1.6-0.6,2.2,0c0.3,0.2,0.5,0.5,0.6,0.8C27.3,7.5,29,4.6,29,4.6
		C30.1,2.7,27.7,0.7,26,2.1z"/>
</g>
<path d="M18.2,22.1l5.9-10.3c0.1-0.1,0.1-0.3,0.1-0.5c0-0.1-0.1-0.2-0.2-0.3c-0.4-0.3-0.7-0.3-1,0L8,23.9h5.1L7.1,34.2
	C7,34.4,7,34.6,7,34.7c0,0.1,0.1,0.2,0.2,0.3c0.3,0.2,0.7,0.3,1,0l15.1-13H18.2z"/>
</svg>
