<?xml version="1.0" encoding="utf-8"?>
<!-- Generator: Adobe Illustrator 27.8.0, SVG Export Plug-In . SVG Version: 6.00 Build 0)  -->
<svg version="1.1" id="Layer_1" xmlns="http://www.w3.org/2000/svg" xmlns:xlink="http://www.w3.org/1999/xlink" x="0px" y="0px"
	 viewBox="0 0 180 27.5" style="enable-background:new 0 0 180 27.5;" xml:space="preserve">
<path d="M43.6,8.8l7.2,10.7c0.1,0.2,0.3,0.3,0.6,0.3h1.1c0.2,0,0.5-0.1,0.6-0.3l7-10.7c0.1-0.1,0.1-0.2,0-0.4
	c-0.1-0.1-0.2-0.2-0.3-0.2h-1.9c-0.2,0-0.4,0.1-0.6,0.3l-5.4,8l-5.4-8c-0.1-0.2-0.3-0.3-0.6-0.3h-2c-0.1,0-0.2,0.1-0.3,0.2
	C43.6,8.5,43.6,8.7,43.6,8.8L43.6,8.8z M75.6,8.2h-8.7c-2,0-3.6,1.6-3.6,3.6v4.3c0,2,1.6,3.6,3.6,3.6h8.7c2,0,3.6-1.6,3.6-3.6v-4.3
	C79.2,9.8,77.6,8.2,75.6,8.2z M77,15.8c0,1-0.8,1.8-1.8,1.8h-8c-1,0-1.8-0.8-1.8-1.8v-3.6c0-1,0.8-1.8,1.8-1.8h8
	c1,0,1.8,0.8,1.8,1.8V15.8z M118.6,10.1V8.7c0-0.1-0.1-0.2-0.1-0.3c-0.1-0.1-0.2-0.1-0.3-0.1h-15.2c-0.1,0-0.2,0-0.3,0.1
	s-0.1,0.2-0.1,0.3v1.4c0,0.3,0.2,0.5,0.5,0.5h6.4v8.5c0,0.3,0.2,0.5,0.5,0.5h1.4c0.1,0,0.2,0,0.3-0.1c0.1-0.1,0.1-0.2,0.1-0.3v-8.5
	h6.4c0.1,0,0.2,0,0.3-0.1C118.5,10.3,118.6,10.2,118.6,10.1L118.6,10.1z M139.6,10.1V8.7c0-0.1-0.1-0.2-0.1-0.3
	c-0.1-0.1-0.2-0.1-0.3-0.1H124c-0.1,0-0.2,0-0.3,0.1c-0.1,0.1-0.1,0.2-0.1,0.3v10.6c0,0.3,0.2,0.5,0.5,0.5h15.2c0.1,0,0.2,0,0.3-0.1
	c0.1-0.1,0.1-0.2,0.1-0.3v-1.4c0-0.3-0.2-0.5-0.5-0.5h-13.3v-2.3h11.1c0.1,0,0.2,0,0.3-0.1s0.1-0.2,0.1-0.3v-1.4
	c0-0.3-0.2-0.5-0.5-0.5h-11.1v-2.2h13.3c0.1,0,0.2,0,0.3-0.1S139.6,10.2,139.6,10.1C139.6,10.1,139.6,10.1,139.6,10.1z M159.2,8.2
	H157c-0.2,0-0.3,0.1-0.5,0.2l-4.4,4l-4.4-4c-0.1-0.1-0.3-0.2-0.5-0.2h-2.3c-0.1,0-0.3,0.1-0.3,0.2c-0.1,0.1,0,0.3,0.1,0.4l5.7,5.2
	l-5.7,5.2c-0.1,0.1-0.1,0.2-0.1,0.4c0.1,0.1,0.2,0.2,0.3,0.2h2.3c0.2,0,0.3-0.1,0.5-0.2l4.4-4l4.4,4c0.1,0.1,0.3,0.2,0.5,0.2h2.3
	c0.1,0,0.3-0.1,0.3-0.2s0-0.3-0.1-0.4l-5.7-5.2l5.7-5.2c0.1-0.1,0.1-0.3,0.1-0.4S159.4,8.2,159.2,8.2L159.2,8.2z M179.9,19.2
	l-7.2-10.7c-0.1-0.2-0.3-0.3-0.6-0.3h-1.1c-0.2,0-0.5,0.1-0.6,0.3l-7,10.7c-0.1,0.1-0.1,0.2,0,0.4c0.1,0.1,0.2,0.2,0.3,0.2h1.9
	c0.2,0,0.4-0.1,0.6-0.3l5.4-8l5.4,8c0.1,0.2,0.3,0.3,0.6,0.3h2c0.1,0,0.2-0.1,0.3-0.2C180,19.4,180,19.3,179.9,19.2L179.9,19.2z
	 M96.3,19.7h2.3c0.2,0,0.3-0.1,0.3-0.2c0.1-0.1,0-0.3-0.1-0.4l-4.4-3.7H95c2,0,3.6-1.5,3.7-3.5c0.1-2-1.5-3.7-3.5-3.7
	c0,0-0.1,0-0.1,0h-11c-0.2,0-0.4,0.2-0.4,0.4v10.8c0,0.2,0.2,0.4,0.4,0.4h1.6c0.2,0,0.4-0.2,0.4-0.4v-4h5.1l4.9,4.2
	C96.2,19.7,96.2,19.7,96.3,19.7L96.3,19.7z M86.1,10.6h9.1c0.7,0,1.3,0.6,1.3,1.3s-0.6,1.3-1.3,1.3h-9.1V10.6z M19.9,17.3l9.3-12.7
	L39.8,0L19.9,27.5L0,0l10.6,4.6L19.9,17.3z M19.9,11.5l4.8-5.1l-4.8,2l-4.8-2L19.9,11.5z"/>
</svg>
